<svg width="120" height="120" viewBox="0 0 120 120" fill="none" xmlns="http://www.w3.org/2000/svg">
<circle cx="60" cy="60" r="60" fill="#283740"/>
<path d="M26.9511 56C26.7057 56 26.5297 55.8987 26.4231 55.696C26.3164 55.4933 26.3057 55.296 26.3911 55.104L31.0951 43.936C31.2124 43.648 31.4151 43.504 31.7031 43.504C31.9804 43.504 32.1777 43.648 32.2951 43.936L37.0151 55.12C37.1111 55.3227 37.0951 55.52 36.9671 55.712C36.8497 55.904 36.6791 56 36.4551 56C36.3271 56 36.2097 55.968 36.1031 55.904C36.0071 55.84 35.9271 55.744 35.8631 55.616L31.4631 44.944H31.9591L27.5271 55.616C27.4737 55.744 27.3937 55.84 27.2871 55.904C27.1911 55.968 27.0791 56 26.9511 56ZM28.0071 53.024L28.4871 51.952H34.9831L35.4631 53.024H28.0071ZM39.3531 56C39.1611 56 39.0064 55.9467 38.8891 55.84C38.7824 55.7227 38.7291 55.568 38.7291 55.376V47.856C38.7397 47.6747 38.7984 47.5307 38.9051 47.424C39.0224 47.3067 39.1717 47.248 39.3531 47.248C39.5344 47.248 39.6784 47.3067 39.7851 47.424C39.9024 47.5307 39.9611 47.68 39.9611 47.872V50.912H43.3371V51.136C43.8917 51.136 44.3824 51.2373 44.8091 51.44C45.2464 51.6427 45.5824 51.9253 45.8171 52.288C46.0624 52.64 46.1851 53.0453 46.1851 53.504C46.1851 53.9947 46.0624 54.4267 45.8171 54.8C45.5824 55.1733 45.2464 55.4667 44.8091 55.68C44.3824 55.8933 43.8917 56 43.3371 56H39.3531ZM39.9611 54.864H43.3371C43.8171 54.864 44.2117 54.7413 44.5211 54.496C44.8304 54.2507 44.9851 53.8987 44.9851 53.44C44.9851 52.96 44.8304 52.5973 44.5211 52.352C44.2117 52.096 43.8171 51.968 43.3371 51.968H39.9611V54.864ZM41.7531 51.6V50.912H43.3371C43.7104 50.912 44.0144 50.7893 44.2491 50.544C44.4837 50.2987 44.6011 49.984 44.6011 49.6C44.6011 49.2587 44.4731 48.9707 44.2171 48.736C43.9717 48.4907 43.6571 48.368 43.2731 48.368H39.3691V47.248H43.2731C43.7637 47.248 44.1957 47.3493 44.5691 47.552C44.9531 47.744 45.2517 48.0107 45.4651 48.352C45.6891 48.6933 45.8011 49.088 45.8011 49.536C45.8011 50.2293 45.5664 50.7467 45.0971 51.088C44.6384 51.4293 44.0517 51.6 43.3371 51.6H41.7531ZM52.1319 56.08C51.3106 56.08 50.5746 55.888 49.9239 55.504C49.2733 55.1093 48.7559 54.576 48.3719 53.904C47.9986 53.232 47.8119 52.4747 47.8119 51.632C47.8119 50.7787 48.0039 50.016 48.3879 49.344C48.7826 48.672 49.3159 48.144 49.9879 47.76C50.6599 47.3653 51.4173 47.168 52.2599 47.168C53.1026 47.168 53.8546 47.3653 54.5159 47.76C55.1879 48.144 55.7159 48.672 56.0999 49.344C56.4946 50.016 56.6973 50.7787 56.7079 51.632L56.2119 52.016C56.2119 52.784 56.0306 53.4773 55.6679 54.096C55.3159 54.704 54.8306 55.1893 54.2119 55.552C53.6039 55.904 52.9106 56.08 52.1319 56.08ZM52.2599 54.96C52.8786 54.96 53.4279 54.816 53.9079 54.528C54.3986 54.24 54.7826 53.8453 55.0599 53.344C55.3479 52.832 55.4919 52.2613 55.4919 51.632C55.4919 50.992 55.3479 50.4213 55.0599 49.92C54.7826 49.4187 54.3986 49.024 53.9079 48.736C53.4279 48.4373 52.8786 48.288 52.2599 48.288C51.6519 48.288 51.1026 48.4373 50.6119 48.736C50.1213 49.024 49.7319 49.4187 49.4439 49.92C49.1559 50.4213 49.0119 50.992 49.0119 51.632C49.0119 52.2613 49.1559 52.832 49.4439 53.344C49.7319 53.8453 50.1213 54.24 50.6119 54.528C51.1026 54.816 51.6519 54.96 52.2599 54.96ZM56.0839 56C55.9026 56 55.7533 55.9467 55.6359 55.84C55.5186 55.7227 55.4599 55.5733 55.4599 55.392V52.656L55.7639 51.392L56.7079 51.632V55.392C56.7079 55.5733 56.6493 55.7227 56.5319 55.84C56.4146 55.9467 56.2653 56 56.0839 56ZM70.9281 56C70.7467 56 70.5974 55.9467 70.4801 55.84C70.3627 55.7227 70.3041 55.5733 70.3041 55.392V50.784C70.3041 50.0267 70.1067 49.4293 69.7121 48.992C69.3174 48.544 68.8107 48.32 68.1921 48.32C67.5307 48.32 66.9867 48.544 66.5601 48.992C66.1441 49.4293 65.9414 50.016 65.9521 50.752H64.8481C64.8587 50.0373 65.0134 49.408 65.3121 48.864C65.6107 48.32 66.0214 47.8987 66.5441 47.6C67.0667 47.3013 67.6587 47.152 68.3201 47.152C68.9494 47.152 69.5041 47.3013 69.9841 47.6C70.4747 47.8987 70.8534 48.32 71.1201 48.864C71.3974 49.408 71.5361 50.048 71.5361 50.784V55.392C71.5361 55.5733 71.4774 55.7227 71.3601 55.84C71.2534 55.9467 71.1094 56 70.9281 56ZM59.7281 56C59.5361 56 59.3814 55.9467 59.2641 55.84C59.1574 55.7227 59.1041 55.5733 59.1041 55.392V47.872C59.1041 47.6907 59.1574 47.5413 59.2641 47.424C59.3814 47.3067 59.5361 47.248 59.7281 47.248C59.9094 47.248 60.0534 47.3067 60.1601 47.424C60.2774 47.5413 60.3361 47.6907 60.3361 47.872V55.392C60.3361 55.5733 60.2774 55.7227 60.1601 55.84C60.0534 55.9467 59.9094 56 59.7281 56ZM65.3441 56C65.1627 56 65.0134 55.9467 64.8961 55.84C64.7787 55.7227 64.7201 55.5733 64.7201 55.392V50.784C64.7201 50.0267 64.5227 49.4293 64.1281 48.992C63.7334 48.544 63.2267 48.32 62.6081 48.32C61.9467 48.32 61.4027 48.5387 60.9761 48.976C60.5494 49.4027 60.3361 49.9627 60.3361 50.656H59.4561C59.4774 49.9733 59.6267 49.3707 59.9041 48.848C60.1921 48.3147 60.5814 47.8987 61.0721 47.6C61.5627 47.3013 62.1174 47.152 62.7361 47.152C63.3654 47.152 63.9201 47.3013 64.4001 47.6C64.8907 47.8987 65.2694 48.32 65.5361 48.864C65.8134 49.408 65.9521 50.048 65.9521 50.784V55.392C65.9521 55.5733 65.8934 55.7227 65.7761 55.84C65.6694 55.9467 65.5254 56 65.3441 56ZM78.1163 56.08C77.295 56.08 76.559 55.888 75.9083 55.504C75.2576 55.1093 74.7403 54.576 74.3563 53.904C73.983 53.232 73.7963 52.4747 73.7963 51.632C73.7963 50.7787 73.9883 50.016 74.3723 49.344C74.767 48.672 75.3003 48.144 75.9723 47.76C76.6443 47.3653 77.4016 47.168 78.2443 47.168C79.087 47.168 79.839 47.3653 80.5003 47.76C81.1723 48.144 81.7003 48.672 82.0843 49.344C82.479 50.016 82.6816 50.7787 82.6923 51.632L82.1963 52.016C82.1963 52.784 82.015 53.4773 81.6523 54.096C81.3003 54.704 80.815 55.1893 80.1963 55.552C79.5883 55.904 78.895 56.08 78.1163 56.08ZM78.2443 54.96C78.863 54.96 79.4123 54.816 79.8923 54.528C80.383 54.24 80.767 53.8453 81.0443 53.344C81.3323 52.832 81.4763 52.2613 81.4763 51.632C81.4763 50.992 81.3323 50.4213 81.0443 49.92C80.767 49.4187 80.383 49.024 79.8923 48.736C79.4123 48.4373 78.863 48.288 78.2443 48.288C77.6363 48.288 77.087 48.4373 76.5963 48.736C76.1056 49.024 75.7163 49.4187 75.4283 49.92C75.1403 50.4213 74.9963 50.992 74.9963 51.632C74.9963 52.2613 75.1403 52.832 75.4283 53.344C75.7163 53.8453 76.1056 54.24 76.5963 54.528C77.087 54.816 77.6363 54.96 78.2443 54.96ZM82.0683 56C81.887 56 81.7376 55.9467 81.6203 55.84C81.503 55.7227 81.4443 55.5733 81.4443 55.392V52.656L81.7483 51.392L82.6923 51.632V55.392C82.6923 55.5733 82.6336 55.7227 82.5163 55.84C82.399 55.9467 82.2496 56 82.0683 56ZM85.7124 59.744C85.5204 59.744 85.3658 59.6853 85.2484 59.568C85.1418 59.4613 85.0884 59.312 85.0884 59.12V51.568C85.0991 50.736 85.2964 49.9893 85.6804 49.328C86.0751 48.656 86.6031 48.128 87.2644 47.744C87.9364 47.36 88.6884 47.168 89.5204 47.168C90.3738 47.168 91.1364 47.3653 91.8084 47.76C92.4804 48.144 93.0084 48.672 93.3924 49.344C93.7871 50.016 93.9844 50.7787 93.9844 51.632C93.9844 52.4747 93.7924 53.232 93.4084 53.904C93.0351 54.576 92.5231 55.1093 91.8724 55.504C91.2218 55.888 90.4858 56.08 89.6644 56.08C88.9498 56.08 88.2991 55.9307 87.7124 55.632C87.1364 55.3227 86.6724 54.9173 86.3204 54.416V59.12C86.3204 59.312 86.2618 59.4613 86.1444 59.568C86.0378 59.6853 85.8938 59.744 85.7124 59.744ZM89.5204 54.96C90.1391 54.96 90.6938 54.816 91.1844 54.528C91.6751 54.24 92.0591 53.8453 92.3364 53.344C92.6244 52.832 92.7684 52.2613 92.7684 51.632C92.7684 50.992 92.6244 50.4213 92.3364 49.92C92.0591 49.4187 91.6751 49.024 91.1844 48.736C90.6938 48.4373 90.1391 48.288 89.5204 48.288C88.9124 48.288 88.3631 48.4373 87.8724 48.736C87.3818 49.024 86.9978 49.4187 86.7204 49.92C86.4431 50.4213 86.3044 50.992 86.3044 51.632C86.3044 52.2613 86.4431 52.832 86.7204 53.344C86.9978 53.8453 87.3818 54.24 87.8724 54.528C88.3631 54.816 88.9124 54.96 89.5204 54.96ZM28.2947 73.84C28.188 73.9467 28.044 74 27.8627 74C27.692 74 27.5534 73.9413 27.4467 73.824L23.6227 69.632L27.2867 65.44C27.3934 65.3227 27.5267 65.2587 27.6867 65.248C27.8467 65.2373 27.9854 65.28 28.1027 65.376C28.2307 65.4933 28.3 65.6267 28.3107 65.776C28.3214 65.9147 28.2734 66.048 28.1667 66.176L25.1587 69.568L28.3267 73.056C28.4334 73.1733 28.4867 73.3067 28.4867 73.456C28.4867 73.5947 28.4227 73.7227 28.2947 73.84ZM22.0867 74C21.9054 74 21.7614 73.9467 21.6547 73.84C21.548 73.7227 21.4947 73.5733 21.4947 73.392V65.872C21.4947 65.68 21.548 65.5307 21.6547 65.424C21.7614 65.3067 21.9054 65.248 22.0867 65.248C22.2787 65.248 22.428 65.3067 22.5347 65.424C22.652 65.5307 22.7107 65.68 22.7107 65.872V69.04H24.6627V70.16H22.7107V73.392C22.7107 73.5733 22.652 73.7227 22.5347 73.84C22.428 73.9467 22.2787 74 22.0867 74ZM33.6662 74.08C32.8129 74.08 32.0502 73.888 31.3782 73.504C30.7062 73.12 30.1782 72.592 29.7942 71.92C29.4102 71.248 29.2182 70.4853 29.2182 69.632C29.2182 68.768 29.4102 68 29.7942 67.328C30.1782 66.656 30.7062 66.128 31.3782 65.744C32.0502 65.36 32.8129 65.168 33.6662 65.168C34.5195 65.168 35.2769 65.36 35.9382 65.744C36.6102 66.128 37.1382 66.656 37.5222 67.328C37.9062 68 38.1035 68.768 38.1142 69.632C38.1142 70.4853 37.9169 71.248 37.5222 71.92C37.1382 72.592 36.6102 73.12 35.9382 73.504C35.2769 73.888 34.5195 74.08 33.6662 74.08ZM33.6662 72.96C34.2849 72.96 34.8395 72.816 35.3302 72.528C35.8209 72.24 36.2049 71.8453 36.4822 71.344C36.7595 70.8427 36.8982 70.272 36.8982 69.632C36.8982 68.992 36.7595 68.4213 36.4822 67.92C36.2049 67.408 35.8209 67.008 35.3302 66.72C34.8395 66.432 34.2849 66.288 33.6662 66.288C33.0475 66.288 32.4929 66.432 32.0022 66.72C31.5115 67.008 31.1222 67.408 30.8342 67.92C30.5569 68.4213 30.4182 68.992 30.4182 69.632C30.4182 70.272 30.5569 70.8427 30.8342 71.344C31.1222 71.8453 31.5115 72.24 32.0022 72.528C32.4929 72.816 33.0475 72.96 33.6662 72.96ZM41.1343 74C40.9423 74 40.7876 73.9467 40.6703 73.84C40.5636 73.7227 40.5103 73.568 40.5103 73.376V65.872C40.5103 65.68 40.5636 65.5307 40.6703 65.424C40.7876 65.3067 40.9423 65.248 41.1343 65.248C41.4116 65.248 41.6356 65.376 41.8063 65.632L45.3423 70.752L48.8783 65.632C49.049 65.376 49.273 65.248 49.5503 65.248C49.7423 65.248 49.8916 65.3067 49.9983 65.424C50.1156 65.5307 50.1743 65.68 50.1743 65.872V73.376C50.1743 73.568 50.1156 73.7227 49.9983 73.84C49.8916 73.9467 49.7423 74 49.5503 74C49.3583 74 49.209 73.9467 49.1023 73.84C48.9956 73.7227 48.9423 73.568 48.9423 73.376V66.672L49.3423 66.8L45.9183 71.744C45.7476 71.9893 45.5503 72.112 45.3263 72.112C45.1023 72.112 44.9103 71.9893 44.7503 71.744L41.3263 66.848L41.7423 66.72V73.376C41.7423 73.568 41.689 73.7227 41.5823 73.84C41.4756 73.9467 41.3263 74 41.1343 74ZM60.5452 74C60.3639 74 60.2145 73.9467 60.0972 73.84C59.9799 73.7227 59.9212 73.568 59.9212 73.376V65.872C59.9212 65.68 59.9799 65.5307 60.0972 65.424C60.2145 65.3067 60.3639 65.248 60.5452 65.248C60.7265 65.248 60.8705 65.3067 60.9772 65.424C61.0839 65.5307 61.1372 65.68 61.1372 65.872V73.376C61.1372 73.568 61.0839 73.7227 60.9772 73.84C60.8705 73.9467 60.7265 74 60.5452 74ZM53.6652 74C53.4839 74 53.3345 73.9467 53.2172 73.84C53.1105 73.7227 53.0572 73.568 53.0572 73.376V65.872C53.0572 65.68 53.1105 65.5307 53.2172 65.424C53.3345 65.3067 53.4839 65.248 53.6652 65.248C53.8465 65.248 53.9905 65.3067 54.0972 65.424C54.2145 65.5307 54.2732 65.68 54.2732 65.872V73.376C54.2732 73.568 54.2145 73.7227 54.0972 73.84C53.9905 73.9467 53.8465 74 53.6652 74ZM54.0652 70.144V69.04H60.3532V70.144H54.0652ZM67.8663 74.08C67.045 74.08 66.309 73.888 65.6583 73.504C65.0076 73.1093 64.4903 72.576 64.1063 71.904C63.733 71.232 63.5463 70.4747 63.5463 69.632C63.5463 68.7787 63.7383 68.016 64.1223 67.344C64.517 66.672 65.0503 66.144 65.7223 65.76C66.3943 65.3653 67.1516 65.168 67.9943 65.168C68.837 65.168 69.589 65.3653 70.2503 65.76C70.9223 66.144 71.4503 66.672 71.8343 67.344C72.229 68.016 72.4316 68.7787 72.4423 69.632L71.9463 70.016C71.9463 70.784 71.765 71.4773 71.4023 72.096C71.0503 72.704 70.565 73.1893 69.9463 73.552C69.3383 73.904 68.645 74.08 67.8663 74.08ZM67.9943 72.96C68.613 72.96 69.1623 72.816 69.6423 72.528C70.133 72.24 70.517 71.8453 70.7943 71.344C71.0823 70.832 71.2263 70.2613 71.2263 69.632C71.2263 68.992 71.0823 68.4213 70.7943 67.92C70.517 67.4187 70.133 67.024 69.6423 66.736C69.1623 66.4373 68.613 66.288 67.9943 66.288C67.3863 66.288 66.837 66.4373 66.3463 66.736C65.8556 67.024 65.4663 67.4187 65.1783 67.92C64.8903 68.4213 64.7463 68.992 64.7463 69.632C64.7463 70.2613 64.8903 70.832 65.1783 71.344C65.4663 71.8453 65.8556 72.24 66.3463 72.528C66.837 72.816 67.3863 72.96 67.9943 72.96ZM71.8183 74C71.637 74 71.4876 73.9467 71.3703 73.84C71.253 73.7227 71.1943 73.5733 71.1943 73.392V70.656L71.4983 69.392L72.4423 69.632V73.392C72.4423 73.5733 72.3836 73.7227 72.2663 73.84C72.149 73.9467 71.9996 74 71.8183 74ZM86.6624 74C86.4811 74 86.3318 73.9467 86.2144 73.84C86.0971 73.7227 86.0384 73.5733 86.0384 73.392V68.784C86.0384 68.0267 85.8411 67.4293 85.4464 66.992C85.0518 66.544 84.5451 66.32 83.9264 66.32C83.2651 66.32 82.7211 66.544 82.2944 66.992C81.8784 67.4293 81.6758 68.016 81.6864 68.752H80.5824C80.5931 68.0373 80.7478 67.408 81.0464 66.864C81.3451 66.32 81.7558 65.8987 82.2784 65.6C82.8011 65.3013 83.3931 65.152 84.0544 65.152C84.6838 65.152 85.2384 65.3013 85.7184 65.6C86.2091 65.8987 86.5878 66.32 86.8544 66.864C87.1318 67.408 87.2704 68.048 87.2704 68.784V73.392C87.2704 73.5733 87.2118 73.7227 87.0944 73.84C86.9878 73.9467 86.8438 74 86.6624 74ZM75.4624 74C75.2704 74 75.1158 73.9467 74.9984 73.84C74.8918 73.7227 74.8384 73.5733 74.8384 73.392V65.872C74.8384 65.6907 74.8918 65.5413 74.9984 65.424C75.1158 65.3067 75.2704 65.248 75.4624 65.248C75.6438 65.248 75.7878 65.3067 75.8944 65.424C76.0118 65.5413 76.0704 65.6907 76.0704 65.872V73.392C76.0704 73.5733 76.0118 73.7227 75.8944 73.84C75.7878 73.9467 75.6438 74 75.4624 74ZM81.0784 74C80.8971 74 80.7478 73.9467 80.6304 73.84C80.5131 73.7227 80.4544 73.5733 80.4544 73.392V68.784C80.4544 68.0267 80.2571 67.4293 79.8624 66.992C79.4678 66.544 78.9611 66.32 78.3424 66.32C77.6811 66.32 77.1371 66.5387 76.7104 66.976C76.2838 67.4027 76.0704 67.9627 76.0704 68.656H75.1904C75.2118 67.9733 75.3611 67.3707 75.6384 66.848C75.9264 66.3147 76.3158 65.8987 76.8064 65.6C77.2971 65.3013 77.8518 65.152 78.4704 65.152C79.0998 65.152 79.6544 65.3013 80.1344 65.6C80.6251 65.8987 81.0038 66.32 81.2704 66.864C81.5478 67.408 81.6864 68.048 81.6864 68.784V73.392C81.6864 73.5733 81.6278 73.7227 81.5104 73.84C81.4038 73.9467 81.2598 74 81.0784 74ZM93.5307 74.16C92.8374 74.16 92.224 74.0213 91.6907 73.744C91.168 73.4667 90.752 73.0827 90.4427 72.592C90.144 72.1013 89.9947 71.536 89.9947 70.896V65.856C90.0054 65.6747 90.064 65.5307 90.1707 65.424C90.288 65.3067 90.4374 65.248 90.6187 65.248C90.8 65.248 90.944 65.3067 91.0507 65.424C91.168 65.5307 91.2267 65.68 91.2267 65.872V68.144H93.5947C94.2347 68.144 94.8 68.2667 95.2907 68.512C95.792 68.7467 96.1814 69.088 96.4587 69.536C96.736 69.9733 96.8747 70.496 96.8747 71.104C96.8747 71.7227 96.7307 72.2613 96.4427 72.72C96.1654 73.1787 95.7707 73.536 95.2587 73.792C94.7574 74.0373 94.1814 74.16 93.5307 74.16ZM93.5307 73.024C94.1494 73.024 94.6614 72.864 95.0667 72.544C95.472 72.224 95.6747 71.744 95.6747 71.104C95.6747 70.464 95.4774 69.9893 95.0827 69.68C94.6987 69.3707 94.2027 69.216 93.5947 69.216H91.2267V70.896C91.2267 71.5147 91.44 72.0267 91.8667 72.432C92.304 72.8267 92.8587 73.024 93.5307 73.024ZM98.8747 74C98.6934 74 98.544 73.9467 98.4267 73.84C98.32 73.7227 98.2667 73.568 98.2667 73.376V65.872C98.2667 65.68 98.32 65.5307 98.4267 65.424C98.544 65.3067 98.6934 65.248 98.8747 65.248C99.0667 65.248 99.216 65.3067 99.3227 65.424C99.44 65.5307 99.4987 65.68 99.4987 65.872V73.376C99.4987 73.568 99.44 73.7227 99.3227 73.84C99.216 73.9467 99.0667 74 98.8747 74Z" fill="#FFFBF4"/>
</svg>
