<svg width="33" height="32" viewBox="0 0 33 32" fill="none" xmlns="http://www.w3.org/2000/svg">
<path d="M13.3713 4.49048C14.0252 3.96236 15.0001 4.4272 15.0002 5.26782V9.13989C20.8783 9.4599 26.0093 12.5832 29.0823 17.1956L29.1965 17.2981L29.1731 17.3333C31.0305 20.1769 32.1115 23.574 32.1116 27.2239V30.6125C32.1113 30.8883 31.8874 31.1123 31.6116 31.1125C31.4434 31.1125 31.2948 31.0291 31.2043 30.9016C31.1752 30.8802 31.147 30.8558 31.1223 30.8274L28.2024 27.47C24.8629 23.6311 20.0712 21.3751 15.0002 21.2356V25.3284C15.0002 26.1691 14.0253 26.634 13.3713 26.1057L0.962158 16.0754C0.46756 15.6752 0.467609 14.921 0.962158 14.5208L13.3713 4.49048Z" fill="#BFB1A4"/>
</svg>
