<svg width="32" height="32" viewBox="0 0 32 32" fill="none" xmlns="http://www.w3.org/2000/svg">
<path d="M16.9551 0.0117188C17.3104 0.0676118 17.6136 0.312572 17.7393 0.658203L18.625 3.09668H30C31.1045 3.09668 31.9999 3.99215 32 5.09668V20.71L31.9893 20.9141C31.8936 21.8554 31.1455 22.6038 30.2041 22.6992L30 22.71H21.1016L23.8916 31.3496L22 32L20.667 27.8711H11.333L10 32L8.1084 31.3496L10.8984 22.71H2L1.7959 22.6992C0.854458 22.6038 0.106361 21.8554 0.0107422 20.9141L0 20.71V5.09668C4.78424e-05 4.06107 0.787253 3.20968 1.7959 3.10742L2 3.09668H13.375L14.2607 0.658203C14.4044 0.263175 14.7799 0.000194175 15.2002 0H16.7998L16.9551 0.0117188ZM11.9795 25.8711H20.0205L19 22.71H13L11.9795 25.8711ZM2 20.71H30V5.09668H2V20.71ZM14.4385 3.09668H17.5615L16.7998 1H15.2002L14.4385 3.09668Z" fill="#283740"/>
</svg>
