<svg width="32" height="32" viewBox="0 0 32 32" fill="none" xmlns="http://www.w3.org/2000/svg">
<path d="M21.8711 26.8711C21.6534 26.9524 21.4189 26.9999 21.1729 27H2C0.895431 27 3.22133e-08 26.1046 0 25V7C0 6.44772 0.224009 5.94787 0.585938 5.58594L21.8711 26.8711ZM31.1787 6.84766C31.504 6.5746 32 6.80572 32 7.23047V24.7695C32 25.1943 31.504 25.4254 31.1787 25.1523L26.4824 21.2109V10.7891L31.1787 6.84766ZM21.1729 5C22.2772 5.00024 23.1729 5.89558 23.1729 7V7.31543L24.2754 10.7891V20.791L8.48438 5H21.1729Z" fill="#FFFBF4"/>
<line x1="1.41421" y1="2" x2="28.0179" y2="28.6036" stroke="#FFFBF4" stroke-width="2" stroke-linecap="round"/>
</svg>
