<svg width="30" height="30" viewBox="0 0 30 30" fill="none" xmlns="http://www.w3.org/2000/svg">
<path d="M9.04327 6.17394C9.38362 5.93167 9.91867 5.94374 10.2376 6.20226C10.5564 6.46079 10.5387 6.86719 10.1985 7.10948L6.48565 9.75304H22.4085C22.9885 9.75304 23.5593 9.89854 24.0687 10.1759L24.18 10.2364C27.5043 12.0468 27.3815 16.8601 23.9691 18.4982C23.5061 18.7204 22.9992 18.836 22.4857 18.836H20.0062C19.4539 18.836 19.0062 18.3883 19.0062 17.836C19.0062 17.2838 19.4539 16.836 20.0062 16.836H22.4857C22.6996 16.836 22.911 16.788 23.1038 16.6954C25.046 15.763 25.1161 13.0227 23.2239 11.9923L23.1126 11.9317C22.8967 11.8142 22.6544 11.753 22.4085 11.753H6.29229L10.1985 14.5343C10.5387 14.7766 10.5564 15.183 10.2376 15.4415C9.91867 15.7 9.38362 15.7121 9.04327 15.4698L3.2669 11.3595C3.06485 11.2157 2.97684 11.0137 3.00518 10.8194C2.97895 10.6266 3.06649 10.4269 3.2669 10.2843L9.04327 6.17394Z" fill="#FFFBF4"/>
</svg>
