<svg width="32" height="32" viewBox="0 0 32 32" fill="none" xmlns="http://www.w3.org/2000/svg">
<path d="M16 0C24.8366 0 32 7.16344 32 16C32 24.8366 24.8366 32 16 32C13.1789 32 10.5289 31.2689 8.22754 29.9873L3.2002 30.4668V25.6006C1.19112 22.9263 0 19.6024 0 16C0 7.16344 7.16344 0 16 0ZM16 2C8.26801 2 2 8.26801 2 16C2 23.732 8.26801 30 16 30C23.732 30 30 23.732 30 16C30 8.26801 23.732 2 16 2ZM10 14C11.1046 14 12 14.8954 12 16C12 17.1046 11.1046 18 10 18C8.89543 18 8 17.1046 8 16C8.00002 14.8954 8.89544 14 10 14ZM16 14C17.1046 14 18 14.8954 18 16C18 17.1046 17.1046 18 16 18C14.8955 17.9999 14 17.1045 14 16C14 14.8955 14.8955 14.0001 16 14ZM22 14C23.1046 14 24 14.8954 24 16C24 17.1046 23.1046 18 22 18C20.8955 17.9999 20 17.1045 20 16C20 14.8955 20.8955 14.0001 22 14Z" fill="#283740"/>
</svg>
