<svg width="32" height="32" viewBox="0 0 32 32" fill="none" xmlns="http://www.w3.org/2000/svg">
<path d="M16 0C24.8366 0 32 7.16344 32 16C32 24.8366 24.8366 32 16 32C13.8654 32 11.8288 31.5809 9.9668 30.8223L3.2002 31.4668V25.6006C1.19112 22.9263 0 19.6024 0 16C0 7.16344 7.16344 0 16 0ZM9.60059 13.8662C8.42249 13.8662 7.46697 14.8219 7.4668 16C7.46704 17.178 8.42253 18.1328 9.60059 18.1328C10.7784 18.1325 11.7332 17.1778 11.7334 16C11.7332 14.8221 10.7784 13.8665 9.60059 13.8662ZM16 13.8662C14.822 13.8663 13.8674 14.822 13.8672 16C13.8674 17.1779 14.822 18.1327 16 18.1328C17.178 18.1327 18.1335 17.178 18.1338 16C18.1336 14.822 17.178 13.8663 16 13.8662ZM22.4004 13.8662C21.2223 13.8662 20.2668 14.8219 20.2666 16C20.2668 17.178 21.2223 18.1328 22.4004 18.1328C23.5782 18.1326 24.533 17.1778 24.5332 16C24.533 14.8221 23.5783 13.8665 22.4004 13.8662Z" fill="#BFB1A4"/>
</svg>
