<svg width="18" height="18" viewBox="0 0 18 18" fill="none" xmlns="http://www.w3.org/2000/svg">
<path d="M14.8185 0.939697C15.4043 0.353996 16.3538 0.353939 16.9396 0.939697C17.5251 1.52548 17.5252 2.47508 16.9396 3.06079L11.1212 8.87817L17.0607 14.8176C17.6462 15.4033 17.6461 16.3529 17.0607 16.9387C16.4749 17.5245 15.5244 17.5245 14.9386 16.9387L8.99915 10.9993L3.06067 16.9387C2.47488 17.5245 1.52536 17.5245 0.939575 16.9387C0.354022 16.3529 0.353867 15.4033 0.939575 14.8176L6.87805 8.87817L1.06067 3.06079C0.47493 2.47505 0.475024 1.5255 1.06067 0.939697C1.64646 0.353911 2.59598 0.353911 3.18176 0.939697L9.00012 6.75708L14.8185 0.939697Z" fill="#BFB1A4"/>
</svg>
