<svg width="26" height="26" viewBox="0 0 26 26" fill="none" xmlns="http://www.w3.org/2000/svg">
<rect x="0.5" y="0.5" width="25" height="25" rx="2.5" fill="#FFFBF4" stroke="#283740"/>
<path fill-rule="evenodd" clip-rule="evenodd" d="M18.8183 4.93958C19.404 4.35388 20.3536 4.35383 20.9393 4.93958C21.5248 5.52536 21.525 6.47497 20.9393 7.06068L15.121 12.8781L21.0604 18.8175C21.646 19.4032 21.6458 20.3528 21.0604 20.9386C20.4747 21.5244 19.5242 21.5244 18.9384 20.9386L12.9989 14.9992L7.06044 20.9386C6.47465 21.5244 5.52513 21.5244 4.93935 20.9386C4.35379 20.3528 4.35364 19.4032 4.93935 18.8175L10.8778 12.8781L5.06044 7.06068C4.4747 6.47494 4.47479 5.52538 5.06044 4.93958C5.64623 4.3538 6.59575 4.3538 7.18153 4.93958L12.9999 10.757L18.8183 4.93958Z" fill="#283740"/>
</svg>
