<svg width="24" height="25" viewBox="0 0 24 25" fill="none" xmlns="http://www.w3.org/2000/svg">
<path d="M16 3.98633C17.1045 3.98633 17.9999 4.88187 18 5.98633V22.1572L17.9893 22.3613C17.8937 23.3027 17.1456 24.051 16.2041 24.1465L16 24.1572H5L4.7959 24.1465C3.85445 24.051 3.10634 23.3027 3.01074 22.3613L3 22.1572V5.98633C3.00013 4.88187 3.89551 3.98633 5 3.98633H16ZM5 22.1572H16V5.98633H5V22.1572ZM18.9932 0C20.6541 0.000103846 22.0019 1.34317 22.002 2.99805L22.001 17.8076C22.001 19.1841 20.8825 20.2988 19.501 20.2988C18.9478 20.2988 18.4986 19.852 18.498 19.3008C18.4978 18.7498 18.9459 18.3028 19.499 18.3027C19.7747 18.3027 19.9971 18.0804 19.9971 17.8057L19.998 2.99609C19.998 2.44445 19.5488 1.99609 18.9951 1.99609H9.75098C9.47563 1.99614 9.25222 2.21887 9.25195 2.49316C9.25189 3.04437 8.80323 3.49174 8.25 3.49121C7.69695 3.49064 7.24841 3.04314 7.24805 2.49219C7.24805 1.11605 8.36694 0.000263938 9.74805 0H18.9932Z" fill="#BFB1A4"/>
</svg>
