<svg width="32" height="32" viewBox="0 0 32 32" fill="none" xmlns="http://www.w3.org/2000/svg">
<path d="M22.2041 5.01074C23.2128 5.11302 24 5.96436 24 7V29.9971C23.9999 31.0326 23.2127 31.8851 22.2041 31.9873L22 31.9971H6C4.89552 31.9971 4.00014 31.1015 4 29.9971V7C4 5.89543 4.89543 5 6 5H22L22.2041 5.01074ZM6 29.9971H22V7H6V29.9971ZM26 0C27.6568 0.000128835 28.9999 1.34339 29 3V23.498C29 25.1548 27.6569 26.498 26 26.498C25.4479 26.498 25.0002 26.0501 25 25.498C25.0001 24.946 25.4479 24.4982 26 24.498C26.552 24.4979 26.9998 24.05 27 23.498V3.00098C27 2.44881 26.5522 2.00016 26 2H13C12.4824 2 12.0562 2.39335 12.0049 2.89746L11.9951 3.10254C11.9438 3.6066 11.5176 3.99993 11 4C10.4479 3.99992 10.0002 3.55206 10 3C10.0002 1.34347 11.3433 6.29762e-05 13 0H26Z" fill="#BFB1A4"/>
</svg>
