<svg width="32" height="32" viewBox="0 0 32 32" fill="none" xmlns="http://www.w3.org/2000/svg">
<path d="M12.7804 3.22366C13.4344 2.69537 14.4094 3.16123 14.4094 4.00198V7.87308C20.288 8.19316 25.4195 11.3175 28.4924 15.9307L28.6056 16.0323L28.5822 16.0674C30.4394 18.9109 31.5206 22.3075 31.5207 25.9571V29.3457C31.5207 29.6219 31.2958 29.8467 31.0197 29.8467C30.8519 29.8465 30.7039 29.7629 30.6135 29.6358C30.5842 29.6143 30.5562 29.59 30.5314 29.5616L27.6105 26.2032C24.2711 22.3646 19.4801 20.1083 14.4094 19.9688V24.0625C14.4089 24.9029 13.4342 25.3679 12.7804 24.8399L0.371268 14.8096C-0.123739 14.4093 -0.123773 13.6542 0.371268 13.2539L12.7804 3.22366Z" fill="#283740"/>
</svg>
