<svg width="32" height="22" viewBox="0 0 32 22" fill="none" xmlns="http://www.w3.org/2000/svg">
<rect x="1" y="1" width="30" height="20" rx="1" fill="#283740" stroke="#FFFBF4" stroke-width="2"/>
<path d="M0 20C1.10457 20 2 20.8636 2 21.9287L1.99609 22H0V20ZM0 16C3.31371 16 6 18.5908 6 21.7861L5.99414 22H3.99316C3.99744 21.9291 3.99999 21.8578 4 21.7861C4 19.8265 2.38424 18.1102 0.211914 18.0049L0 18V16ZM0 12C5.52275 12 9.99984 16.3171 10 21.6426C10 21.7623 9.99569 21.8814 9.99121 22H7.99121C7.99699 21.8815 8 21.7623 8 21.6426C7.99984 17.4896 4.48736 14 0 14V12ZM0 8C7.73199 8 14 14.0442 14 21.5C14 21.6674 13.9955 21.8341 13.9893 22H11.9883C11.9957 21.8341 12 21.6675 12 21.5C12 15.2167 6.6966 10 0 10V8Z" fill="#FFFBF4"/>
</svg>
