<svg width="32" height="32" viewBox="0 0 32 32" fill="none" xmlns="http://www.w3.org/2000/svg">
<path d="M0 25C1.10457 25 2 25.8636 2 26.9287L1.99609 27H0V25ZM0 21C3.31371 21 6 23.5908 6 26.7861L5.99414 27H3.99316C3.99744 26.9291 3.99999 26.8578 4 26.7861C4 24.8265 2.38424 23.1102 0.211914 23.0049L0 23V21ZM0 17C5.52275 17 9.99984 21.3171 10 26.6426C10 26.7623 9.9957 26.8814 9.99121 27H7.99121C7.99699 26.8815 8 26.7623 8 26.6426C7.99984 22.4896 4.48736 19 0 19V17ZM0 13C7.73199 13 14 19.0442 14 26.5C14 26.6674 13.9955 26.8341 13.9893 27H11.9883C11.9957 26.8341 12 26.6675 12 26.5C12 20.2167 6.6966 15 0 15V13ZM29.5 5C30.7095 5 31.7186 5.85886 31.9502 7H32V24.5C32 25.8807 30.8807 27 29.5 27H16V24H30V8H2V11H0V7.5C0 6.11929 1.11929 5 2.5 5H29.5Z" fill="#283740"/>
</svg>
