<svg width="24" height="24" viewBox="0 0 24 24" fill="none" xmlns="http://www.w3.org/2000/svg">
<path d="M20.5841 2.80102C20.9836 2.4211 21.6441 2.40965 22.0587 2.77563C22.4733 3.14181 22.4856 3.7472 22.0861 4.12719L2.56947 22.6887C2.16993 23.0687 1.50948 23.0793 1.09486 22.7131C0.680414 22.347 0.668099 21.7425 1.06751 21.3625L20.5841 2.80102ZM17.6622 14.0452C17.988 13.6298 18.6122 13.5241 19.0685 13.8186C19.83 14.3109 20.9506 15.0738 21.674 15.7385C22.4164 16.4209 23.2607 17.4723 23.7863 18.1604C24.0849 18.5517 24.0041 19.082 23.6105 19.3948L21.1749 21.3303C18.2815 23.6286 13.941 23.4865 11.2335 21.0051L8.58997 18.5823L12.5089 14.7727C13.2802 15.3406 14.0677 15.8863 14.6378 16.2727C15.0994 16.5855 15.748 16.4879 16.0831 16.0608L17.6622 14.0452ZM3.89369 1.32641C4.23547 0.96532 4.81526 0.891812 5.24232 1.16626C6.00242 1.65505 7.16841 2.44323 7.91517 3.12915C8.63834 3.79347 9.45796 4.8066 9.98646 5.49536C10.305 5.91054 10.1928 6.47751 9.74622 6.77758L7.54896 8.25219C7.08989 8.56079 6.98659 9.14952 7.32435 9.56958C7.86556 10.2423 8.69745 11.2491 9.50013 12.1262L5.63978 15.8791L2.13685 12.6682C-0.570153 10.1868 -0.724226 6.20947 1.78333 3.55786L3.89369 1.32641Z" fill="#283740"/>
</svg>
