<svg width="16" height="17" viewBox="0 0 16 17" fill="none" xmlns="http://www.w3.org/2000/svg">
<path d="M13.5433 1.0392C13.9265 0.641538 14.5596 0.629659 14.9573 1.01283C15.355 1.39602 15.3668 2.02921 14.9837 2.42689L1.72099 16.1906C1.33776 16.5882 0.703629 16.5992 0.30595 16.216C-0.0913251 15.8327 -0.103379 15.1995 0.279583 14.8019L13.5433 1.0392ZM11.6048 9.8058C11.9174 9.37116 12.5173 9.25996 12.9515 9.57338C13.447 9.93118 14.071 10.4095 14.4944 10.8341C14.9345 11.2755 15.4269 11.9248 15.7825 12.422C16.0733 12.8285 15.992 13.3875 15.6145 13.715C12.8393 16.1204 8.65285 15.9925 6.05595 13.3956L6.01493 13.3546L8.7249 10.4796C8.99391 10.689 9.25228 10.8876 9.47978 11.0578C9.92075 11.3873 10.5422 11.2841 10.8636 10.8371L11.6048 9.8058ZM2.2415 0.342911C2.56942 -0.0347161 3.12884 -0.115451 3.53544 0.175918C4.03981 0.537377 4.70044 1.04011 5.14384 1.48451C5.56704 1.90871 6.03878 2.52478 6.39091 3.01381C6.70123 3.44482 6.59353 4.03859 6.16532 4.35268L5.12724 5.11342C4.68655 5.43632 4.5869 6.05236 4.91337 6.49037C5.17723 6.84425 5.5069 7.27629 5.84794 7.70131L3.18486 10.5255L2.56083 9.9015C-0.0360162 7.30457 -0.16392 3.11811 2.2415 0.342911Z" fill="#283740"/>
</svg>
