<svg width="26" height="26" viewBox="0 0 26 26" fill="none" xmlns="http://www.w3.org/2000/svg">
<rect x="0.5" y="0.5" width="25" height="25" rx="2.5" fill="#FFFBF4" stroke="#283740"/>
<path fill-rule="evenodd" clip-rule="evenodd" d="M10.2 14.3838C10.5892 13.9932 11.227 13.987 11.6248 14.3692C12.0226 14.7524 12.0305 15.3813 11.6414 15.7725L6.76056 20.6749L8.87286 20.4034C9.42467 20.3327 9.93117 20.7152 10.0037 21.2579C10.0759 21.8009 9.68663 22.2993 9.13458 22.3702L4.23322 22.9981L4.09747 23.0079C3.47016 23.0135 2.95949 22.4977 2.98126 21.8809L2.99298 21.7481L3.75568 16.9444C3.84155 16.4036 4.35729 16.0331 4.90704 16.1172C5.45714 16.2019 5.83361 16.7099 5.74786 17.251L5.44513 19.1602L10.2 14.3838ZM21.9217 2.96294C22.549 2.95725 23.0596 3.47217 23.0379 4.08891L23.0262 4.2227L22.2635 9.02641C22.1775 9.56701 21.6618 9.93767 21.1121 9.85356C20.5621 9.76891 20.1857 9.26074 20.2713 8.71977L20.574 6.80864L15.8192 11.586C15.4297 11.9769 14.7912 11.9826 14.3934 11.5997C13.996 11.2164 13.9887 10.5884 14.3777 10.1973L19.2567 5.29497L17.1463 5.56743C16.5945 5.638 16.0879 5.25472 16.0154 4.71196C15.9433 4.16889 16.3326 3.67049 16.8846 3.59966L21.7869 2.97173L21.9217 2.96294Z" fill="#283740"/>
</svg>
