<svg width="16" height="16" viewBox="0 0 16 16" fill="none" xmlns="http://www.w3.org/2000/svg">
<path d="M8.81445 0.905273L13 5.55566L14 6.66699V15C14 15.5177 13.6067 15.9438 13.1025 15.9951L13 16H3L2.89746 15.9951C2.39333 15.9438 2 15.5177 2 15V1C2 0.447715 2.44772 1.61064e-08 3 0H8L8.81445 0.905273ZM3 1V15H13V6.66699H8.94629C8.42401 6.66699 8.00035 6.19643 8 5.61621V1H3ZM8.94629 5.61621H11.7158L8.94629 2.53809V5.61621ZM13.7451 0.334961C13.903 0.511786 14 0.744258 14 1V1.05078C13.9999 0.77389 13.9027 0.522641 13.7451 0.334961Z" fill="#283740"/>
</svg>
