<svg width="32" height="32" viewBox="0 0 32 32" fill="none" xmlns="http://www.w3.org/2000/svg">
<path d="M15.5469 0.00447671C20.8747 -0.127257 26.2703 2.65527 29.2872 7.43514C30.1532 8.80742 30.6333 10.5386 30.9151 12.1969C31.2025 13.8883 31.3117 15.6806 31.335 17.2906C31.3584 18.907 31.2964 20.3814 31.2286 21.4498C31.1946 21.9849 31.1583 22.4218 31.1309 22.7271C31.1172 22.8797 31.1061 23.0002 31.0977 23.0836C31.0935 23.1252 31.0904 23.1584 31.0879 23.1812C31.0868 23.1922 31.0857 23.2012 31.085 23.2076C31.0847 23.2105 31.0843 23.2135 31.084 23.2154V23.2183L31.0831 23.2193C31.0815 23.2192 31.0746 23.2176 31.045 23.2144C31.1632 25.3621 29.9638 27.5796 27.4415 28.3072L21.9278 29.898C20.0097 30.4513 18.0958 29.0115 18.0958 27.0152V19.9908C18.0958 17.9945 20.0097 16.5547 21.9278 17.108L27.3331 18.6676C27.3392 18.2436 27.3426 17.8013 27.336 17.3482C27.3143 15.8568 27.2128 14.2854 26.9717 12.8668C26.725 11.4151 26.3577 10.2882 25.9043 9.56991C23.643 5.98721 19.5731 3.90537 15.6456 4.00252C11.6846 4.10064 8.17274 5.9791 5.76274 9.60897C5.28003 10.3361 4.87439 11.4709 4.57817 12.9234C4.2884 14.3444 4.13198 15.9183 4.05767 17.4117C4.03705 17.826 4.02291 18.2312 4.01372 18.6217L9.2647 17.108C11.1827 16.555 13.0958 17.9946 13.0958 19.9908V27.0152C13.0958 29.0114 11.1827 30.451 9.2647 29.898L3.75005 28.3072C1.19985 27.5716 -0.000491668 25.3128 0.148487 23.1431C0.113206 23.1457 0.104681 23.147 0.102589 23.1471V23.1461L0.101612 23.1431C0.101496 23.1412 0.101824 23.1383 0.101612 23.1353C0.10115 23.1289 0.100421 23.12 0.0996589 23.109C0.0980747 23.0861 0.0954944 23.053 0.092823 23.0113C0.0874744 22.9279 0.0804486 22.8076 0.0723152 22.6549C0.0560358 22.3491 0.036263 21.9115 0.0215339 21.3756C-0.0078596 20.3058 -0.0179156 18.8295 0.0625495 17.2125C0.142716 15.6018 0.314184 13.8109 0.658253 12.1236C0.9959 10.4681 1.53131 8.75052 2.42974 7.39705C5.54548 2.70404 10.2523 0.135582 15.5469 0.00447671Z" fill="#FFFBF4"/>
</svg>
