<svg width="32" height="32" viewBox="0 0 32 32" fill="none" xmlns="http://www.w3.org/2000/svg">
<path d="M1.80278 2.29256C2.1933 1.90204 2.82632 1.90204 3.21684 2.29256L29.8204 28.8961C30.2108 29.2866 30.2108 29.9197 29.8204 30.3101C29.4298 30.7004 28.7967 30.7005 28.4063 30.3101L1.80278 3.70662C1.41234 3.31619 1.41251 2.68311 1.80278 2.29256ZM5.38774 10.2916C5.06861 10.9775 4.79379 11.8661 4.57817 12.9234C4.28843 14.3444 4.13197 15.9184 4.05766 17.4117C4.03707 17.8257 4.0229 18.2305 4.01372 18.6207L9.26469 17.108C11.1826 16.5549 13.0956 17.9937 13.0957 19.9898V27.0142C13.0957 29.0104 11.1827 30.4501 9.26469 29.8971L3.75004 28.3062C1.20015 27.5706 -0.000229578 25.3126 0.148481 23.1431C0.113368 23.1457 0.104715 23.147 0.102583 23.1471V23.1461L0.101606 23.1431C0.101471 23.1413 0.101759 23.1382 0.101606 23.1353C0.101151 23.129 0.100409 23.1199 0.0996531 23.109C0.0980755 23.0861 0.0954834 23.0529 0.0928171 23.0113C0.0874728 22.9279 0.0804369 22.8075 0.0723093 22.6549C0.056033 22.3492 0.0362582 21.9114 0.0215281 21.3756C-0.00786608 20.3059 -0.0179019 18.8294 0.0625437 17.2125C0.142701 15.6019 0.314217 13.8108 0.658247 12.1236C0.995876 10.4681 1.53134 8.75054 2.42973 7.39705C2.43816 7.38435 2.44667 7.37164 2.45512 7.35897L5.38774 10.2916ZM24.3057 29.2096L21.9268 29.8971C20.0089 30.45 18.0958 29.0104 18.0957 27.0142V22.9996L24.3057 29.2096ZM15.5469 0.00447599C20.8747 -0.127247 26.2703 2.65528 29.2872 7.43514C30.1531 8.80738 30.6333 10.5387 30.9151 12.1969C31.2025 13.8882 31.3117 15.6807 31.335 17.2906C31.3584 18.9069 31.2964 20.3815 31.2286 21.4498C31.1946 21.9849 31.1583 22.4219 31.1309 22.7271C31.1172 22.8796 31.1061 23.0003 31.0977 23.0836C31.0935 23.1251 31.0903 23.1584 31.0879 23.1812C31.0868 23.1921 31.0857 23.2012 31.085 23.2076C31.0847 23.2105 31.0842 23.2135 31.084 23.2154V23.2183L31.0831 23.2193C31.0814 23.2192 31.0742 23.2176 31.045 23.2144C31.1085 24.3723 30.7882 25.5496 30.085 26.5035L20.6104 17.0289C21.0329 16.9594 21.4796 16.9791 21.9268 17.108L27.3331 18.6666C27.3392 18.2429 27.3425 17.801 27.336 17.3482C27.3143 15.8569 27.2127 14.2853 26.9717 12.8668C26.725 11.4154 26.3576 10.2883 25.9043 9.56991C23.643 5.98722 19.5731 3.90538 15.6456 4.00252C13.4003 4.05815 11.2997 4.68607 9.46196 5.88045L6.58793 3.00545C9.18559 1.11175 12.2522 0.0860666 15.5469 0.00447599Z" fill="#FFFBF4"/>
</svg>
