<svg width="32" height="32" viewBox="0 0 32 32" fill="none" xmlns="http://www.w3.org/2000/svg">
<path d="M19.6835 19.15C20.4319 19.5079 20.7341 20.3949 20.3576 21.1308L20.3546 21.1358C20.3531 21.1387 20.3509 21.1433 20.3484 21.148C20.3432 21.1582 20.3355 21.1732 20.326 21.1914C20.3068 21.2281 20.2785 21.2811 20.2431 21.3475C20.1722 21.4807 20.0701 21.671 19.9415 21.9014C19.6847 22.361 19.3199 22.9901 18.8888 23.6637C18.4595 24.3344 17.9509 25.0701 17.4075 25.7332C16.8796 26.3773 16.2476 27.0413 15.5569 27.49C13.5266 28.8086 10.8037 30.0806 7.99245 28.5087C5.18114 26.9364 4.95719 24.0163 5.12095 21.6538C5.17671 20.8499 5.45436 19.988 5.76633 19.223C6.08754 18.4355 6.49183 17.6416 6.87686 16.9461C7.26356 16.2476 7.64356 15.627 7.92614 15.1819C8.06772 14.9588 8.186 14.7774 8.2696 14.6514C8.31133 14.5885 8.34452 14.5383 8.36777 14.5039C8.37928 14.4868 8.38887 14.4728 8.39532 14.4633C8.39837 14.4589 8.40137 14.4547 8.40317 14.4521L8.40617 14.447L8.49952 14.3248C8.99275 13.7418 9.86326 13.6009 10.5142 14.022C11.1647 14.4432 11.3654 15.2768 11.0011 15.943L10.9209 16.0737L10.9164 16.0813C10.9121 16.0876 10.9042 16.098 10.8949 16.1117C10.8761 16.1395 10.8473 16.1825 10.8105 16.2379C10.7367 16.3493 10.6294 16.5132 10.4998 16.7174C10.2396 17.1273 9.89221 17.6955 9.54202 18.3281C9.19005 18.9639 8.84612 19.646 8.58471 20.2869C8.31428 20.9501 8.17382 21.4706 8.15 21.8132C7.99581 24.0377 8.35253 25.2741 9.52843 25.9317C10.7043 26.5891 11.9883 26.2702 13.8998 25.0288C14.1943 24.8374 14.5899 24.4586 15.0476 23.9001C15.4898 23.3605 15.9274 22.7315 16.3198 22.1185C16.7102 21.5085 17.0446 20.9329 17.2809 20.5097C17.3987 20.2989 17.4916 20.1269 17.5542 20.0093C17.5854 19.9507 17.6094 19.9051 17.6249 19.8755C17.6325 19.8608 17.6386 19.8494 17.6422 19.8426C17.6438 19.8395 17.6447 19.8367 17.6453 19.8354C18.0222 19.0997 18.935 18.7924 19.6835 19.15ZM18.9433 10.136C19.6661 10.5404 19.9085 11.4451 19.4845 12.1567L14.1046 21.1828C13.6805 21.8943 12.7504 22.1433 12.0274 21.7391C11.3044 21.3347 11.0621 20.4301 11.4862 19.7185L16.8661 10.6924C17.2903 9.9808 18.2203 9.73168 18.9433 10.136ZM22.9783 3.36645C25.7894 4.93872 26.0135 7.8589 25.8498 10.2213C25.794 11.0252 25.5163 11.8871 25.2044 12.6521C24.8832 13.4397 24.4798 14.234 24.0947 14.9295C23.708 15.628 23.328 16.2485 23.0454 16.6937C22.9038 16.9169 22.7847 17.0976 22.7011 17.2237C22.6593 17.2868 22.6262 17.3368 22.6029 17.3713C22.5914 17.3884 22.5819 17.4023 22.5754 17.4118C22.5723 17.4163 22.5694 17.4203 22.5675 17.423L22.5645 17.4281C22.0949 18.1121 21.1508 18.302 20.4565 17.8531C19.7625 17.4038 19.5808 16.4846 20.0503 15.8005C20.0511 15.7993 20.0531 15.7973 20.0551 15.7943C20.0595 15.7879 20.0665 15.7773 20.0758 15.7634C20.0946 15.7355 20.1233 15.6928 20.1602 15.6372C20.234 15.5258 20.3413 15.362 20.4709 15.1578C20.7311 14.7478 21.0785 14.1797 21.4287 13.547C21.7806 12.9113 22.1241 12.2299 22.3855 11.5891C22.656 10.9257 22.7969 10.4046 22.8207 10.0619C22.9749 7.83758 22.618 6.60109 21.4423 5.94342C20.2664 5.28583 18.9826 5.60477 17.0709 6.84634C16.7764 7.03761 16.3814 7.41562 15.9236 7.97417C15.4813 8.51395 15.0435 9.14341 14.651 9.75663C14.2605 10.3667 13.9262 10.9421 13.6898 11.3654C13.572 11.5763 13.4792 11.7482 13.4165 11.8658C13.3852 11.9246 13.3613 11.97 13.3458 11.9997C13.3381 12.0144 13.3329 12.0261 13.3294 12.033L13.3249 12.0405L13.2481 12.1732C12.8347 12.812 11.9891 13.0604 11.2872 12.7252C10.5851 12.3897 10.2757 11.5891 10.5505 10.8838L10.6131 10.7443L10.6161 10.7393C10.6176 10.7364 10.6198 10.732 10.6223 10.7271C10.6276 10.7169 10.6352 10.702 10.6447 10.6837C10.6639 10.6469 10.6921 10.5942 10.7276 10.5276C10.7985 10.3944 10.9014 10.2046 11.0301 9.97424C11.2869 9.51455 11.6516 8.88562 12.0828 8.21191C12.5121 7.54111 13.0197 6.80512 13.5632 6.14187C14.0912 5.49763 14.7229 4.83379 15.4138 4.38509C17.4442 3.06647 20.1669 1.79427 22.9783 3.36645Z" fill="#BFB1A4"/>
</svg>
