<svg width="32" height="32" viewBox="0 0 32 32" fill="none" xmlns="http://www.w3.org/2000/svg">
<path d="M20.999 29C21.5513 29 21.999 29.4477 21.999 30C21.999 30.5523 21.5513 31 20.999 31H9.99902C9.44674 31 8.99902 30.5523 8.99902 30C8.99902 29.4477 9.44674 29 9.99902 29H13.999V25.8857C13.0252 25.7578 12.1393 25.5231 11.2949 25.1523C10.0487 24.605 8.94814 23.7937 7.81445 22.7285C7.09878 22.0561 6.60542 21.0594 6.25195 20.0713C5.89011 19.0597 5.63347 17.9385 5.45117 16.9111C5.26814 15.8796 5.15563 14.9175 5.08887 14.2148C5.05542 13.8627 5.03338 13.5731 5.01953 13.3711C5.01262 13.2703 5.00804 13.1906 5.00488 13.1357C5.00331 13.1085 5.00175 13.0871 5.00098 13.0723C5.00059 13.065 5.00118 13.0588 5.00098 13.0547C5.00088 13.0528 5.00006 13.051 5 13.0498V12.9453C5.02709 12.4392 5.43406 12.0257 5.95117 12.001C6.50278 11.9746 6.97163 12.4006 6.99805 12.9521C6.99807 12.9526 6.99798 12.9538 6.99805 12.9551C6.99818 12.9576 6.99872 12.962 6.99902 12.9678C6.99963 12.9794 7.00058 12.9976 7.00195 13.0215C7.00472 13.0695 7.00925 13.1414 7.01562 13.2344C7.02843 13.4211 7.04849 13.6928 7.08008 14.0254C7.1434 14.6919 7.24991 15.5979 7.4209 16.5615C7.59264 17.5294 7.82572 18.5308 8.13574 19.3975C8.45422 20.2878 8.81554 20.9257 9.18359 21.2715C10.2173 22.2428 11.1301 22.8959 12.0986 23.3213C13.0618 23.7443 14.1365 23.9662 15.5234 24C18.2296 24.066 20.2518 23.316 22.2949 21.29C22.6844 20.9038 23.0279 20.2457 23.3008 19.3613C23.5679 18.4955 23.7386 17.5078 23.8447 16.5566C23.9504 15.6096 23.9898 14.7245 24.002 14.0752C24.008 13.7517 24.007 13.4885 24.0049 13.3076C24.0038 13.2172 24.0021 13.1468 24.001 13.1006C24.0004 13.0778 24.0003 13.0608 24 13.0498V13.0352C23.9806 12.4833 24.412 12.0205 24.9639 12.001C25.5157 11.9816 25.9785 12.413 25.998 12.9648V12.9668C25.9981 12.9681 25.999 12.9706 25.999 12.9727C25.9992 12.9767 25.9988 12.9823 25.999 12.9893C25.9995 13.004 26.0003 13.0257 26.001 13.0527C26.0023 13.1069 26.0037 13.185 26.0049 13.2842C26.0072 13.4826 26.0074 13.7661 26.001 14.1123C25.9881 14.8034 25.9474 15.753 25.833 16.7783C25.7191 17.799 25.5295 18.9218 25.2119 19.9512C24.8998 20.9626 24.4336 21.9856 23.7031 22.71C21.6615 24.7344 19.5392 25.7275 16.999 25.9512V29H20.999ZM15.499 0C19.0889 0 21.999 3 21.999 11C21.999 19 19.0889 22 15.499 22C11.9092 22 8.99902 19 8.99902 11C8.99902 3 11.9092 0 15.499 0Z" fill="#FFFBF4"/>
</svg>
