<svg width="32" height="32" viewBox="0 0 32 32" fill="none" xmlns="http://www.w3.org/2000/svg">
<path d="M5.95129 12.001C6.50284 11.9747 6.97175 12.4006 6.99817 12.9521C6.99819 12.9526 6.99811 12.9538 6.99817 12.9551C6.9983 12.9576 6.99884 12.962 6.99915 12.9678C6.99976 12.9794 7.0007 12.9976 7.00208 13.0215C7.00484 13.0695 7.00937 13.1414 7.01575 13.2344C7.02855 13.4211 7.04861 13.6928 7.0802 14.0254C7.14352 14.6919 7.25004 15.5979 7.42102 16.5615C7.59276 17.5294 7.82585 18.5308 8.13586 19.3975C8.45434 20.2877 8.81567 20.9257 9.18372 21.2715C10.2174 22.2427 11.1302 22.8959 12.0988 23.3213C13.0619 23.7443 14.1367 23.9662 15.5236 24C16.9554 24.0349 18.1945 23.8378 19.3478 23.3477L20.8478 24.8477C19.6528 25.4737 18.3891 25.8288 16.9991 25.9512V29H20.9991C21.5514 29.0001 21.9991 29.4478 21.9991 30C21.9991 30.5522 21.5514 30.9999 20.9991 31H9.99915C9.44686 31 8.99915 30.5523 8.99915 30C8.99915 29.4477 9.44686 29 9.99915 29H13.9991V25.8857C13.0254 25.7578 12.1394 25.5231 11.295 25.1523C10.0489 24.605 8.94823 23.7937 7.81458 22.7285C7.09892 22.0561 6.60554 21.0594 6.25208 20.0713C5.89024 19.0597 5.63359 17.9385 5.45129 16.9111C5.26826 15.8796 5.15575 14.9175 5.08899 14.2148C5.05554 13.8628 5.0335 13.5731 5.01965 13.3711C5.01275 13.2703 5.00816 13.1906 5.005 13.1357C5.00344 13.1085 5.00188 13.0871 5.0011 13.0723C5.00071 13.065 5.0013 13.0588 5.0011 13.0547C5.001 13.0528 5.00018 13.051 5.00012 13.0498V12.9453C5.02722 12.4392 5.43418 12.0257 5.95129 12.001ZM1.70715 1.29297C2.09768 0.902444 2.73069 0.902444 3.12122 1.29297L29.7247 27.8965C30.1153 28.287 30.1153 28.92 29.7247 29.3105C29.3342 29.7011 28.7012 29.7011 28.3107 29.3105L1.70715 2.70703C1.31663 2.31651 1.31663 1.68349 1.70715 1.29297ZM17.6017 21.6016C16.9419 21.8711 16.2353 22 15.4991 22C12.2375 22 9.53696 19.5235 9.07043 13.0703L17.6017 21.6016ZM24.964 12.001C25.5158 11.9816 25.9786 12.413 25.9982 12.9648V12.9668C25.9982 12.9681 25.9991 12.9706 25.9991 12.9727C25.9993 12.9767 25.9989 12.9823 25.9991 12.9893C25.9996 13.004 26.0004 13.0257 26.0011 13.0527C26.0024 13.1069 26.0039 13.185 26.005 13.2842C26.0073 13.4826 26.0076 13.7661 26.0011 14.1123C25.9882 14.8034 25.9475 15.753 25.8331 16.7783C25.7193 17.799 25.5297 18.9218 25.212 19.9512C25.1525 20.1441 25.0853 20.3367 25.0138 20.5283L23.42 18.9355C23.6191 18.1791 23.7558 17.3553 23.8448 16.5566C23.9505 15.6096 23.99 14.7245 24.0021 14.0752C24.0081 13.7517 24.0071 13.4885 24.005 13.3076C24.004 13.2172 24.0022 13.1468 24.0011 13.1006C24.0005 13.0778 24.0004 13.0608 24.0001 13.0498V13.0352C23.9807 12.4833 24.4121 12.0205 24.964 12.001ZM15.4991 0C19.0889 8.42132e-05 21.9991 3.00011 21.9991 11C21.9991 13.3535 21.7449 15.2736 21.298 16.8125L9.69348 5.20801C10.7636 1.5006 12.9606 0 15.4991 0Z" fill="#FFFBF4"/>
</svg>
