<svg width="26" height="26" viewBox="0 0 26 26" fill="none" xmlns="http://www.w3.org/2000/svg">
<rect x="0.5" y="0.5" width="25" height="25" rx="2.5" fill="#FFFBF4" stroke="#283740"/>
<path fill-rule="evenodd" clip-rule="evenodd" d="M10.9083 14.2041C11.5904 14.1983 12.137 14.7825 12.0285 15.4463L11.2531 20.1914C11.166 20.7239 10.6429 21.0881 10.0851 21.0049C9.52707 20.9211 9.14571 20.4214 9.23256 19.8887L9.54116 17.9942L4.69643 22.7178C4.30153 23.1025 3.65392 23.1086 3.25014 22.7315C2.84647 22.3539 2.83884 21.7357 3.23354 21.3506L8.20717 16.502L6.04897 16.7715C5.48895 16.8411 4.97523 16.4635 4.90151 15.9287C4.82812 15.3942 5.22173 14.9039 5.78139 14.834L10.7707 14.2139L10.9083 14.2041ZM21.2414 3.2754C21.6363 2.89084 22.2839 2.88467 22.6876 3.26173C23.0914 3.63931 23.0981 4.25846 22.7033 4.64357L17.7306 9.4922L19.8878 9.22267C20.4479 9.15299 20.9626 9.53063 21.0363 10.0654C21.1095 10.5999 20.7151 11.0894 20.1554 11.1592L15.1671 11.7793L15.0294 11.7891C14.3473 11.795 13.8008 11.2118 13.9093 10.5479L14.6847 5.80177C14.772 5.26942 15.2949 4.90586 15.8527 4.98927C16.4106 5.07318 16.7922 5.57282 16.7052 6.10548L16.3957 7.99904L21.2414 3.2754Z" fill="#283740"/>
</svg>
