<svg width="20" height="20" viewBox="0 0 20 20" fill="none" xmlns="http://www.w3.org/2000/svg">
<ellipse cx="15.5" cy="13.968" rx="0.833333" ry="0.967742" fill="#FFFBF4"/>
<ellipse cx="9.99998" cy="2.93548" rx="1.66667" ry="1.93548" fill="#FFFBF4"/>
<ellipse cx="10" cy="9.9034" rx="6" ry="6.58065" fill="#FFFBF4"/>
<ellipse cx="10" cy="4.2905" rx="3.33333" ry="0.967742" fill="#FFFBF4"/>
<ellipse cx="10" cy="3.51584" rx="2.33333" ry="0.967742" fill="#FFFBF4"/>
<ellipse cx="2.66665" cy="17.2582" rx="0.333333" ry="1.16129" fill="#FFFBF4"/>
<ellipse cx="17.3333" cy="17.2582" rx="0.333333" ry="1.16129" fill="#FFFBF4"/>
<rect x="3" y="16.8713" width="14" height="1.93548" fill="#FFFBF4"/>
<ellipse cx="3.16669" cy="18.2262" rx="0.5" ry="0.580645" fill="#FFFBF4"/>
<ellipse cx="16.8333" cy="18.2262" rx="0.5" ry="0.580645" fill="#FFFBF4"/>
<ellipse cx="3.50002" cy="16.4843" rx="0.833333" ry="1.16129" fill="#FFFBF4"/>
<ellipse cx="16.5" cy="16.4843" rx="0.833333" ry="1.16129" fill="#FFFBF4"/>
<ellipse cx="15.5" cy="15.3224" rx="1.16667" ry="1.16129" fill="#FFFBF4"/>
<ellipse cx="4.33333" cy="13.7741" rx="0.333333" ry="1.16129" fill="#FFFBF4"/>
<ellipse cx="15.5" cy="11.6449" rx="0.5" ry="2.12903" fill="#FFFBF4"/>
<ellipse cx="15.6666" cy="12.9999" rx="0.333333" ry="0.387097" fill="#FFFBF4"/>
<ellipse cx="4.83333" cy="12.032" rx="0.833333" ry="2.51613" fill="#FFFBF4"/>
<ellipse cx="4.33335" cy="14.1609" rx="0.666667" ry="0.774194" fill="#FFFBF4"/>
<ellipse cx="4.33331" cy="15.1289" rx="1" ry="0.967742" fill="#FFFBF4"/>
<ellipse cx="10" cy="14.9358" rx="6" ry="2.70968" fill="#FFFBF4"/>
<ellipse cx="10.1667" cy="16.2901" rx="6.5" ry="1.35484" fill="#FFFBF4"/>
<path d="M10 1H9.97233C9.38805 1 8.86565 1.36405 8.66336 1.9122C8.55495 2.20595 8.40748 2.48378 8.22492 2.73818L7.97071 3.09243C7.76989 3.37228 7.5171 3.61087 7.22611 3.79519L7.17759 3.82592C6.29684 4.38382 5.57782 5.16296 5.0923 6.08559L4.98332 6.29269C4.33748 7.51997 4 8.88598 4 10.2728L4 12.1793C4 12.7243 3.93103 13.267 3.79473 13.7946L3.75299 13.9562C3.58571 14.6037 3.30263 15.2156 2.91744 15.7623L2.47809 16.3859C2.1758 16.815 2.08421 17.3579 2.22902 17.8624C2.29679 18.0985 2.43806 18.3069 2.6323 18.4573L2.82239 18.6044C3.15361 18.8609 3.56062 19 3.9795 19H10" stroke="#283740"/>
<path d="M10 1H10.0277C10.6119 1 11.1344 1.36405 11.3366 1.9122C11.4451 2.20595 11.5925 2.48378 11.7751 2.73818L12.0293 3.09243C12.2301 3.37228 12.4829 3.61087 12.7739 3.79519L12.8224 3.82592C13.7032 4.38382 14.4222 5.16296 14.9077 6.08559L15.0167 6.29269C15.6625 7.51997 16 8.88598 16 10.2728V12.1793C16 12.7243 16.069 13.267 16.2053 13.7946L16.247 13.9562C16.4143 14.6037 16.6974 15.2156 17.0826 15.7623L17.5219 16.3859C17.8242 16.815 17.9158 17.3579 17.771 17.8624C17.7032 18.0985 17.5619 18.3069 17.3677 18.4573L17.1776 18.6044C16.8464 18.8609 16.4394 19 16.0205 19H10" stroke="#283740"/>
</svg>
