<svg width="20" height="20" viewBox="0 0 20 20" fill="none" xmlns="http://www.w3.org/2000/svg">
<ellipse cx="16.1876" cy="13.968" rx="0.9375" ry="0.967742" fill="#C5E3E8"/>
<ellipse cx="9.99994" cy="2.93548" rx="1.875" ry="1.93548" fill="#C5E3E8"/>
<ellipse cx="10" cy="9.9034" rx="6.75" ry="6.58065" fill="#C5E3E8"/>
<ellipse cx="10.0001" cy="4.2905" rx="3.75" ry="0.967742" fill="#C5E3E8"/>
<ellipse cx="10.0001" cy="3.51584" rx="2.625" ry="0.967742" fill="#C5E3E8"/>
<ellipse cx="1.74994" cy="17.2582" rx="0.375" ry="1.16129" fill="#C5E3E8"/>
<ellipse cx="18.25" cy="17.2582" rx="0.375" ry="1.16129" fill="#C5E3E8"/>
<rect x="2.125" y="16.8713" width="15.75" height="1.93548" fill="#C5E3E8"/>
<ellipse cx="2.31256" cy="18.2262" rx="0.5625" ry="0.580645" fill="#C5E3E8"/>
<ellipse cx="17.6874" cy="18.2262" rx="0.5625" ry="0.580645" fill="#C5E3E8"/>
<ellipse cx="2.68756" cy="16.4843" rx="0.9375" ry="1.16129" fill="#C5E3E8"/>
<ellipse cx="17.3126" cy="16.4843" rx="0.9375" ry="1.16129" fill="#C5E3E8"/>
<ellipse cx="16.1874" cy="15.3224" rx="1.3125" ry="1.16129" fill="#C5E3E8"/>
<ellipse cx="3.625" cy="13.7741" rx="0.375" ry="1.16129" fill="#C5E3E8"/>
<ellipse cx="16.1875" cy="11.6449" rx="0.5625" ry="2.12903" fill="#C5E3E8"/>
<ellipse cx="16.3749" cy="12.9999" rx="0.375" ry="0.387097" fill="#C5E3E8"/>
<ellipse cx="4.1875" cy="12.032" rx="0.9375" ry="2.51613" fill="#C5E3E8"/>
<ellipse cx="3.62506" cy="14.1609" rx="0.75" ry="0.774194" fill="#C5E3E8"/>
<ellipse cx="3.62494" cy="15.1289" rx="1.125" ry="0.967742" fill="#C5E3E8"/>
<ellipse cx="10" cy="14.9358" rx="6.75" ry="2.70968" fill="#C5E3E8"/>
<ellipse cx="10.1876" cy="16.2901" rx="7.3125" ry="1.35484" fill="#C5E3E8"/>
<path d="M10 1H9.82849C9.25124 1 8.73073 1.34748 8.50939 1.88061C8.3788 2.19514 8.20389 2.48938 7.98996 2.75437L7.70105 3.11224C7.48565 3.37907 7.22151 3.60255 6.9227 3.7708L6.83147 3.82216C5.83637 4.38246 4.99864 5.20757 4.41687 6.19027C3.65949 7.46961 3.25 8.94569 3.25 10.4324L3.25 12.1523C3.25 12.7146 3.17035 13.274 3.01344 13.814L2.97506 13.946C2.78516 14.5994 2.47013 15.2097 2.04747 15.743L1.53239 16.3928C1.19977 16.8125 1.09883 17.3706 1.26338 17.8801C1.33576 18.1043 1.4802 18.2982 1.67423 18.4317L1.96281 18.6303C2.31268 18.8711 2.72739 19 3.1521 19H10" stroke="#283740"/>
<path d="M10 1H10.1715C10.7488 1 11.2693 1.34748 11.4906 1.88061C11.6212 2.19514 11.7961 2.48938 12.01 2.75437L12.2989 3.11224C12.5144 3.37907 12.7785 3.60255 13.0773 3.7708L13.1685 3.82216C14.1636 4.38246 15.0014 5.20757 15.5831 6.19027C16.3405 7.46961 16.75 8.94569 16.75 10.4324V12.1523C16.75 12.7146 16.8296 13.274 16.9866 13.814L17.0249 13.946C17.2148 14.5994 17.5299 15.2097 17.9525 15.743L18.4676 16.3928C18.8002 16.8125 18.9012 17.3706 18.7366 17.8801C18.6642 18.1043 18.5198 18.2982 18.3258 18.4317L18.0372 18.6303C17.6873 18.8711 17.2726 19 16.8479 19H10" stroke="#283740"/>
</svg>
