<svg width="15" height="17" viewBox="0 0 15 17" fill="none" xmlns="http://www.w3.org/2000/svg">
<path d="M7.17249 1C7.87469 1 8.4459 1.65066 8.48108 2.46875C8.80846 2.60854 9.01036 2.80079 9.01038 3.0127C9.01038 3.03456 9.0058 3.05574 9.00159 3.07715C9.49278 3.21784 9.79749 3.41492 9.79749 3.63281C9.79745 3.66588 9.78869 3.69752 9.77502 3.72949C11.0537 4.67161 11.8981 6.28716 11.8981 8.12305C11.8981 8.34874 11.8828 8.57085 11.858 8.78906C11.8821 9.00947 11.8981 9.25569 11.8981 9.51562C11.8981 9.84138 11.8752 10.1455 11.8385 10.4043C11.8753 10.4576 11.8981 10.5256 11.8981 10.5996C11.898 10.6471 11.8869 10.6913 11.8707 10.7314C12.0455 10.8705 12.1608 11.1066 12.1608 11.374C12.1607 11.5048 12.1293 11.6264 12.0807 11.7344C12.2892 11.9046 12.4224 12.165 12.4225 12.457C12.4225 12.4631 12.4216 12.4695 12.4215 12.4756C12.6516 12.5409 12.8342 12.7777 12.9088 13.0869C12.9216 13.0802 12.9346 13.0772 12.9479 13.0771C13.0929 13.0771 13.2106 13.4928 13.2106 14.0059C13.2105 14.5189 13.0928 14.9346 12.9479 14.9346C12.9398 14.9346 12.9323 14.9322 12.9244 14.9297C12.8856 15.0635 12.798 15.1685 12.6852 15.2158V15.2441H1.66077V15.2158C1.54782 15.1685 1.45931 15.0637 1.42053 14.9297C1.41298 14.932 1.40579 14.9346 1.39807 14.9346C1.25311 14.9346 1.1354 14.5189 1.13538 14.0059C1.13538 13.4928 1.2531 13.0771 1.39807 13.0771C1.41107 13.0772 1.42367 13.0804 1.43616 13.0869C1.51265 12.7698 1.70387 12.5298 1.94202 12.4717C1.92968 12.4173 1.9225 12.3608 1.92249 12.3027C1.92249 12.0626 2.03597 11.85 2.21057 11.708C2.19585 11.651 2.1852 11.591 2.18518 11.5283C2.18518 11.2958 2.295 11.0942 2.45569 10.9883C2.46491 10.8603 2.483 10.7431 2.50549 10.6426C2.46925 10.3928 2.44788 10.1163 2.44788 9.8252C2.44788 9.52229 2.47131 9.23522 2.51038 8.97754C2.46962 8.6994 2.44788 8.41402 2.44788 8.12305C2.44788 6.2874 3.29154 4.67167 4.56995 3.72949C4.55638 3.69763 4.54849 3.66575 4.54846 3.63281C4.54846 3.41506 4.85272 3.21782 5.34338 3.07715C5.33919 3.0558 5.33557 3.0345 5.33557 3.0127C5.33559 2.80114 5.53648 2.60849 5.86292 2.46875C5.89806 1.65077 6.47043 1.00023 7.17249 1ZM1.64026 14.3506C1.64682 14.3474 1.65403 14.3456 1.66077 14.3428V14.126C1.65951 14.1246 1.65811 14.1234 1.65686 14.1221C1.65404 14.2019 1.64842 14.2784 1.64026 14.3506ZM12.6852 14.126V14.3428C12.6912 14.3453 12.6978 14.3467 12.7037 14.3496C12.6956 14.2778 12.6909 14.2014 12.6881 14.1221C12.687 14.1233 12.6863 14.1248 12.6852 14.126ZM2.67053 13.6963H2.68518C2.6805 13.6942 2.67613 13.6915 2.67151 13.6895C2.67096 13.6917 2.67109 13.6941 2.67053 13.6963Z" fill="#F2E4D8"/>
<path d="M7.17238 2C7.14774 2.00013 7.12214 2.00816 7.10011 2.02344C7.07855 2.03844 7.06558 2.05674 7.0591 2.07422C6.94416 2.39059 6.78747 2.69089 6.59327 2.96582L6.39308 3.24902C6.15988 3.57914 5.8648 3.86136 5.52492 4.08008L5.49074 4.10254C4.94463 4.454 4.49948 4.94195 4.2007 5.51855L4.10499 5.70312C3.67302 6.53718 3.44787 7.46306 3.44777 8.40234V9.94629C3.44775 10.4636 3.38286 10.9792 3.25538 11.4805L3.22218 11.6123C3.06117 12.2455 2.78786 12.845 2.41554 13.3818L2.07081 13.8779C2.00623 13.9712 1.98588 14.0873 2.01124 14.1973L2.13527 14.2949C2.22181 14.3628 2.32896 14.4003 2.43898 14.4004H7.17238V16.4004H2.43898C1.88034 16.4003 1.33707 16.2125 0.897962 15.8672L0.755384 15.7549L0.639173 15.6553C0.377989 15.414 0.187574 15.1039 0.0903451 14.7598C-0.104562 14.0694 0.0194091 13.3278 0.428236 12.7383L0.771986 12.2422C1.00817 11.9016 1.18157 11.5208 1.2837 11.1191L1.31691 10.9873C1.40341 10.6471 1.44775 10.2973 1.44777 9.94629V8.40234C1.44787 7.14283 1.7503 5.90159 2.3296 4.7832L2.42433 4.59863C2.88377 3.7118 3.56786 2.96046 4.40773 2.41992L4.44288 2.39746C4.5667 2.31774 4.67432 2.21501 4.75929 2.09473L4.95949 1.81152C5.05096 1.68198 5.12506 1.54065 5.17921 1.3916C5.48537 0.549247 6.29159 0.000253057 7.17238 0V2ZM7.17335 0C8.05417 0.000212844 8.86034 0.549234 9.16652 1.3916C9.22066 1.54065 9.29477 1.68199 9.38624 1.81152L9.58644 2.09473C9.67141 2.21502 9.77901 2.31773 9.90285 2.39746L9.938 2.41992C10.7779 2.96045 11.4619 3.71179 11.9214 4.59863L12.0161 4.7832C12.5954 5.90159 12.8979 7.14283 12.898 8.40234V9.94629C12.898 10.2973 12.9423 10.6471 13.0288 10.9873L13.062 11.1191C13.1642 11.5208 13.3376 11.9016 13.5737 12.2422L13.9175 12.7383C14.3263 13.3278 14.4503 14.0694 14.2554 14.7598C14.1581 15.1039 13.9678 15.4139 13.7066 15.6553L13.5903 15.7549L13.4478 15.8672C13.0086 16.2126 12.4654 16.4003 11.9068 16.4004H7.17335V14.4004H11.9068C12.0168 14.4003 12.1239 14.3629 12.2105 14.2949L12.3345 14.1973C12.3599 14.0873 12.3395 13.9712 12.2749 13.8779L11.9302 13.3818C11.5579 12.845 11.2846 12.2455 11.1235 11.6123L11.0903 11.4805C10.9629 10.9792 10.898 10.4635 10.898 9.94629V8.40234C10.8979 7.46306 10.6727 6.53718 10.2407 5.70312L10.145 5.51855C9.84623 4.94194 9.40112 4.45399 8.85499 4.10254L8.82081 4.08008C8.48091 3.86136 8.18585 3.57916 7.95265 3.24902L7.75245 2.96582C7.55826 2.69089 7.40156 2.39058 7.28663 2.07422C7.28014 2.05673 7.2672 2.03844 7.24562 2.02344C7.22356 2.00814 7.19802 2.00011 7.17335 2V0Z" fill="#283740"/>
</svg>
