<svg width="32" height="32" viewBox="0 0 32 32" fill="none" xmlns="http://www.w3.org/2000/svg">
<path d="M13.7344 0C14.9849 0.000131384 16.2318 0.584771 17.1826 1.16309C19.1888 2.38365 20 4.65578 20 6.7627V20.9873C20 21.9585 19.9106 23.0724 19.5645 24.0811C19.2139 25.1024 18.5717 26.0898 17.4346 26.6484C17.0214 26.8514 16.536 26.9999 16.001 27C15.4657 27 14.9797 26.8514 14.5664 26.6484C13.4292 26.0899 12.7882 25.1024 12.4375 24.0811C12.0913 23.0725 12 21.9595 12 20.9883V7.81055C12 7.25841 12.4479 6.81074 13 6.81055C13.5522 6.81058 14 7.25831 14 7.81055L14.001 20.9873C14.001 21.8616 14.0852 22.7237 14.3281 23.4316C14.5668 24.1267 14.9291 24.5985 15.4482 24.8535C15.6562 24.9556 15.8394 24.9999 16 25C16.1608 25 16.3445 24.9558 16.5527 24.8535C17.0719 24.5985 17.4332 24.1268 17.6719 23.4316C17.9148 22.7238 18.001 21.8625 18.001 20.9883V6.7627C18.001 5.09541 17.3616 3.61215 16.1436 2.87109C15.2803 2.346 14.4217 2 13.7334 2C13.0259 2.00019 12.2218 2.37082 11.4541 2.91797C10.4791 3.61308 10.001 4.8906 10.001 6.35156V22.7773C10.0027 22.8005 10.0046 22.8369 10.0088 22.8838C10.0173 22.9786 10.0315 23.1186 10.0527 23.292C10.0954 23.6407 10.1668 24.1193 10.2812 24.6367C10.5241 25.7349 10.9119 26.7712 11.4355 27.2871C12.9053 28.7342 14.3337 29.7576 16.0322 29.8115C17.6751 29.8636 18.9865 28.9519 20.501 27.3203C21.0906 26.685 21.4857 25.6069 21.7246 24.5557C21.8391 24.052 21.9091 23.594 21.9502 23.2627C21.9707 23.0978 21.9843 22.965 21.9922 22.876C21.9961 22.832 21.9984 22.7987 22 22.7773C22.0002 22.775 22.0018 22.7726 22.002 22.7705L22 3.81152C22 3.25938 22.4479 2.81078 23 2.81055C23.5522 2.81055 24.0008 3.2584 24.001 3.81055V22.8408L23.998 22.8711L23.999 22.8721L23.998 22.873C23.998 22.8738 23.9981 22.8749 23.998 22.876C23.9979 22.8786 23.9974 22.8826 23.9971 22.8867C23.9965 22.8956 23.9962 22.9086 23.9951 22.9238C23.9928 22.9547 23.9883 22.9989 23.9834 23.0537C23.9737 23.1633 23.9591 23.3186 23.9355 23.5088C23.8884 23.8886 23.8084 24.4143 23.6758 24.998C23.4202 26.1226 22.9318 27.6409 21.9668 28.6807C20.3721 30.3987 18.5293 31.8907 15.9688 31.8096C13.4635 31.7299 11.5595 30.2166 10.0322 28.7129C9.05766 27.7534 8.57837 26.1955 8.3291 25.0684C8.19748 24.4731 8.1156 23.9299 8.06738 23.5361C8.04322 23.3388 8.02681 23.1764 8.0166 23.0625C8.01153 23.0059 8.00924 22.9605 8.00684 22.9287C8.00564 22.9129 8.00356 22.8997 8.00293 22.8906V22.876L8.00195 22.875L8.00293 22.874V22.873L8.00098 22.8428V22.8105L8 6.35156C8.00003 4.52983 8.59579 2.49937 10.2939 1.28906C11.1783 0.658783 12.4024 6.19043e-06 13.7344 0Z" fill="#283740"/>
</svg>
