<svg width="24" height="24" viewBox="0 0 24 24" fill="none" xmlns="http://www.w3.org/2000/svg">
<path d="M7.22374 14.5007L9.67602 16.9082L3.44183 20.6217L7.22374 14.5007Z" fill="#BFB1A4" stroke="#283740"/>
<rect y="0.70056" width="6.35273" height="6.88613" transform="matrix(0.713593 0.70056 -0.713593 0.70056 15.5329 4.30865)" fill="#BFB1A4" stroke="#283740"/>
<path d="M10.1919 9.82483L14.4915 14.046C15.1534 14.6958 15.533 15.5723 15.5508 16.4911C15.5654 17.2469 15.3345 17.9879 14.8908 18.6058L14.8002 18.7317C14.1578 19.6264 12.8493 19.7362 12.0609 18.9622L5.18416 12.2111C4.39605 11.4371 4.50845 10.153 5.4197 9.52244L5.54792 9.4335C6.17721 8.99804 6.93149 8.77069 7.70124 8.78494C8.63706 8.80234 9.52993 9.17517 10.1919 9.82483Z" fill="#BFB1A4" stroke="#283740"/>
<path d="M18.7841 9.0011L14.9882 5.27459C14.5716 4.86551 14.3074 4.33033 14.2384 3.75579L14.228 3.6648C14.1633 3.12582 14.2928 2.58161 14.5945 2.12685C14.9169 1.64106 15.6131 1.56975 16.0307 1.97976L22.1402 7.97763C22.5578 8.38765 22.4852 9.07111 21.9904 9.38764C21.5271 9.68383 20.9728 9.81097 20.4238 9.7475L20.3311 9.73724C19.8192 9.67801 19.3378 9.47265 18.9464 9.14819L18.7841 9.0011Z" fill="#BFB1A4" stroke="#283740"/>
<path d="M19.8786 4.04669C20.8898 5.03946 21.6508 6.0606 22.0702 6.89614C22.2812 7.3163 22.3928 7.6642 22.4215 7.92235C22.4507 8.18551 22.3878 8.27402 22.3643 8.29726C22.341 8.32015 22.2506 8.38286 21.9817 8.35404C21.7188 8.32582 21.365 8.21556 20.9371 8.00855C20.086 7.59674 19.0453 6.85038 18.034 5.85761C17.0226 4.8647 16.2619 3.84245 15.8423 3.0068C15.6315 2.58677 15.5191 2.23938 15.4904 1.98127C15.4611 1.71728 15.5249 1.62857 15.5483 1.60568C15.5719 1.58261 15.6621 1.52087 15.9301 1.54958C16.1931 1.57776 16.5475 1.6873 16.9754 1.89439C17.8266 2.30625 18.8672 3.05379 19.8786 4.04669Z" fill="#BFB1A4" stroke="#283740"/>
</svg>
