<svg width="32" height="32" viewBox="0 0 32 32" fill="none" xmlns="http://www.w3.org/2000/svg">
<path d="M9.59968 19.0684L13.1718 22.5753L4.08884 27.9868L9.59968 19.0684Z" fill="#BFB1A4" stroke="#283740"/>
<rect y="0.70056" width="8.80364" height="9.51485" transform="matrix(0.713593 0.70056 -0.713593 0.70056 20.5439 5.67486)" fill="#BFB1A4" stroke="#283740"/>
<path d="M13.7088 12.9838L19.4412 18.6115C20.3545 19.5081 20.878 20.7173 20.9026 21.985C20.9227 23.0279 20.6039 24.0503 19.9918 24.9029L19.8712 25.0705C18.9546 26.3472 17.0868 26.5047 15.9618 25.4003L6.79308 16.399C5.66824 15.2945 5.8286 13.4608 7.12897 12.561L7.3004 12.4433C8.16879 11.8424 9.20961 11.5287 10.2719 11.5485C11.5633 11.5725 12.7954 12.0871 13.7088 12.9838Z" fill="#BFB1A4" stroke="#283740"/>
<path d="M24.927 12.1187L19.865 7.14909C19.2828 6.57739 18.9132 5.82977 18.8169 5.02688L18.8023 4.90579C18.7115 4.1488 18.8942 3.38397 19.318 2.74527C19.8062 2.00968 20.8605 1.90207 21.4929 2.52293L29.6393 10.5205C30.2717 11.1414 30.1621 12.1764 29.4128 12.6557C28.7622 13.0717 27.9832 13.2511 27.2121 13.162L27.0887 13.1476C26.2709 13.0531 25.5094 12.6903 24.927 12.1187Z" fill="#BFB1A4" stroke="#283740"/>
<path d="M26.6231 5.27815C27.981 6.61124 29.0076 7.98801 29.5771 9.12233C29.863 9.69185 30.0209 10.1748 30.0621 10.5453C30.1039 10.9216 30.0202 11.0995 29.9381 11.1802C29.8559 11.2609 29.6747 11.343 29.2914 11.302C28.9139 11.2616 28.4213 11.1072 27.8412 10.8265C26.6858 10.2674 25.284 9.25877 23.9262 7.92577C22.5686 6.59291 21.5416 5.21712 20.9722 4.08295C20.6863 3.51344 20.529 3.02983 20.4878 2.65926C20.446 2.28287 20.5297 2.10505 20.6119 2.02437C20.6941 1.94371 20.8753 1.86152 21.2586 1.9026C21.636 1.94306 22.128 2.09809 22.7081 2.37876C23.8634 2.93781 25.2653 3.94525 26.6231 5.27815Z" fill="#BFB1A4" stroke="#283740"/>
</svg>
