<svg width="30" height="30" viewBox="0 0 30 30" fill="none" xmlns="http://www.w3.org/2000/svg">
<path d="M20.5654 4.45824C20.9844 3.90996 21.7355 3.84442 22.2431 4.31176C22.7507 4.77952 22.8232 5.60403 22.4042 6.15258L16.5468 13.8176L24.2714 23.927C24.6904 24.4755 24.6188 25.2991 24.1113 25.7668C23.6036 26.2346 22.8517 26.1689 22.4325 25.6204L14.9804 15.8674L7.11126 26.1662C6.69219 26.7144 5.94114 26.7801 5.43353 26.3127C4.92592 25.845 4.85346 25.0205 5.27239 24.4719L13.413 13.8166L7.60442 6.2141C7.18528 5.66555 7.2569 4.84109 7.76458 4.37328C8.27223 3.90573 9.02321 3.97139 9.44231 4.51976L14.9794 11.7668L20.5654 4.45824Z" fill="#283740"/>
</svg>
