<svg width="24" height="24" viewBox="0 0 24 24" fill="none" xmlns="http://www.w3.org/2000/svg">
<path d="M11.3076 15.2217L12 15.8848L12.6924 15.2217L14.749 13.249L22.4473 20.9473C22.3033 20.9802 22.154 21 22 21H2C1.84464 21 1.694 20.9798 1.54883 20.9463L9.24805 13.2471L11.3076 15.2217ZM23.9229 4.45801C23.9714 4.63059 24 4.81189 24 5V19C24 19.2033 23.9685 19.3991 23.9121 19.584L16.1934 11.8652L23.9229 4.45801ZM7.80371 11.8633L0.0859375 19.5811C0.0301838 19.3972 1.47356e-09 19.2021 0 19V5C0 4.81199 0.02767 4.63052 0.0761719 4.45801L7.80371 11.8633ZM22 3C22.1686 3 22.3318 3.0232 22.4883 3.0625L12 13.1143L1.51074 3.0625C1.66747 3.02305 1.83103 3 2 3H22Z" fill="#FFFBF4"/>
</svg>
