<svg width="24" height="24" viewBox="0 0 24 24" fill="none" xmlns="http://www.w3.org/2000/svg">
<path d="M12 2C17.5228 2 22 6.47715 22 12C22 17.5228 17.5228 22 12 22C6.47715 22 2 17.5228 2 12C2 6.47715 6.47715 2 12 2ZM17.8486 8.08105C17.3415 7.61289 16.5503 7.64535 16.082 8.15234L11.0342 13.6191L8.94922 11.1865C8.49995 10.6624 7.71068 10.6015 7.18652 11.0508C6.66239 11.5 6.60158 12.2893 7.05078 12.8135L9.31934 15.46C10.1957 16.4821 11.7684 16.5108 12.6816 15.5215L17.918 9.84766C18.3861 9.34045 18.3557 8.54932 17.8486 8.08105Z" fill="#283740"/>
</svg>
