<svg width="32" height="32" viewBox="0 0 32 32" fill="none" xmlns="http://www.w3.org/2000/svg">
<path d="M22.707 23.293C23.0975 22.9025 23.7306 22.9025 24.1211 23.293L30.707 29.8789C31.0973 30.2695 31.0975 30.9025 30.707 31.293C30.3166 31.6833 29.6835 31.6832 29.293 31.293L22.707 24.707C22.3166 24.3165 22.3166 23.6835 22.707 23.293ZM22.5322 18.3604C22.9026 17.9901 23.5208 18.3661 23.3623 18.8652L22.2666 22.3145C22.1683 22.624 21.9258 22.8665 21.6162 22.9648L18.167 24.0605C17.668 24.2188 17.2923 23.6008 17.6621 23.2305L22.5322 18.3604ZM12 1C18.0751 1 23 5.92487 23 12C23 18.0751 18.0751 23 12 23C5.92487 23 1 18.0751 1 12C1 5.92487 5.92487 1 12 1ZM12 4C7.58172 4 4 7.58172 4 12C4 16.4183 7.58172 20 12 20C16.4183 20 20 16.4183 20 12C20 7.58172 16.4183 4 12 4ZM9.30957 5.53125C9.80967 5.29698 10.4053 5.51166 10.6396 6.01172C10.8593 6.48059 10.683 7.03367 10.248 7.29395L10.1582 7.3418L10.1504 7.3457C10.1426 7.34946 10.1287 7.3557 10.1113 7.36426C10.0766 7.38141 10.0238 7.4079 9.95801 7.44238C9.82501 7.51212 9.64027 7.61465 9.43555 7.74023C9.00536 8.00416 8.56873 8.32487 8.30859 8.63477C8.05471 8.93743 7.84683 9.37722 7.69824 9.79297C7.62737 9.99135 7.57612 10.1668 7.54297 10.291C7.52651 10.3527 7.5151 10.4016 7.50781 10.4326C7.50419 10.4481 7.50139 10.4595 7.5 10.4658C7.49957 10.4676 7.49853 10.4688 7.49805 10.4697C7.38552 11.01 6.85689 11.3582 6.31641 11.2461C5.77575 11.1339 5.42892 10.6041 5.54102 10.0635V10.0615L5.54199 10.0586C5.54225 10.0572 5.5426 10.0556 5.54297 10.0537C5.54396 10.0491 5.54527 10.0424 5.54688 10.0352C5.55009 10.0206 5.55485 10.0009 5.56055 9.97656C5.57202 9.92763 5.5882 9.85939 5.61035 9.77637C5.65461 9.61052 5.72225 9.37989 5.81543 9.11914C5.99525 8.61607 6.29889 7.91876 6.77637 7.34961C7.24796 6.78759 7.90747 6.33097 8.38965 6.03516C8.64093 5.88101 8.86683 5.75658 9.03027 5.6709C9.11213 5.62799 9.17969 5.59392 9.22754 5.57031C9.25124 5.55862 9.27037 5.5496 9.28418 5.54297C9.29095 5.53972 9.29658 5.53715 9.30078 5.53516C9.30264 5.53427 9.30434 5.53298 9.30566 5.53223L9.30762 5.53125H9.30957Z" fill="#BFB1A4"/>
</svg>
