<svg fill="#BFB1A4" viewBox="0 0 24 24" height="200" width="200" xmlns="http://www.w3.org/2000/svg">
  
  
  <path d="M19.43 12.98c.04-.32.07-.64.07-.98s-.03-.66-.07-.98l2.11-1.65c.19-.15.24-.42.12-.64l-2-3.46c-.09-.16-.26-.24-.43-.24l-2.5.99c-.52-.4-1.08-.73-1.69-.93l-.38-2.65C14.46 2.18 14.25 2 14 2h-4c-.25 0-.46.18-.49.42l-.38 2.65c-.61.2-1.17.53-1.69.93l-2.5-.99c-.17-.07-.34 0-.43.24l-2 3.46c-.12.22-.07.49.12.64l2.11 1.65c-.04.32-.07.65-.07.98s.03.66.07.98l-2.11 1.65c-.19.15-.24.42-.12.64l2 3.46c.09.16.26.24.43.24l2.5-.99c.52.4 1.08.73 1.69.93l.38 2.65c.03.24.24.42.49.42h4c.25 0 .46-.18.49-.42l.38-2.65c.61-.2 1.17-.53 1.69-.93l2.5.99c.17.07.34 0 .43-.24l2-3.46c.12-.22.07-.49-.12-.64l-2.11-1.65zM12 15.5c-1.93 0-3.5-1.57-3.5-3.5s1.57-3.5 3.5-3.5 3.5 1.57 3.5 3.5-1.57 3.5-3.5 3.5z"></path>
</svg>
