<svg width="32" height="32" viewBox="0 0 32 32" fill="none" xmlns="http://www.w3.org/2000/svg">
<path d="M16 0C24.8366 0 32 7.16344 32 16C32 24.8366 24.8366 32 16 32C7.16344 32 0 24.8366 0 16C0 7.16344 7.16344 0 16 0ZM16 2C8.26801 2 2 8.26801 2 16C2 23.732 8.26801 30 16 30C23.732 30 30 23.732 30 16C30 8.26801 23.732 2 16 2ZM18.166 25.667C18.4422 25.667 18.666 25.8909 18.666 26.167C18.6658 26.443 18.442 26.667 18.166 26.667H13.833C13.5571 26.6668 13.3332 26.4429 13.333 26.167C13.333 25.891 13.557 25.6672 13.833 25.667H18.166ZM9.15723 14.833C9.88906 14.833 10.5014 15.3566 10.6533 16.0518C10.793 16.6913 11.0185 17.6045 11.3174 18.4453C11.4668 18.8656 11.6312 19.2582 11.8076 19.585C11.9874 19.9179 12.1626 20.1504 12.3203 20.2822C12.9118 20.7762 13.4446 21.0736 14.0078 21.252C14.4075 21.3784 14.8364 21.4493 15.333 21.4805V21.333H17.333V21.4072C17.5645 21.3691 17.7824 21.3183 17.9922 21.252C18.5554 21.0736 19.0882 20.7762 19.6797 20.2822C19.8374 20.1504 20.0126 19.9179 20.1924 19.585C20.3688 19.2582 20.5332 18.8656 20.6826 18.4453C20.9815 17.6045 21.207 16.6913 21.3467 16.0518C21.4986 15.3566 22.1109 14.833 22.8428 14.833H24C24.276 14.833 24.4998 15.057 24.5 15.333C24.5 15.6091 24.2761 15.833 24 15.833H22.8428C22.6012 15.833 22.3794 16.009 22.3232 16.2646C22.1796 16.9224 21.9442 17.8824 21.625 18.7803C21.4655 19.229 21.2811 19.6725 21.0723 20.0596C20.8668 20.4402 20.6193 20.8001 20.3203 21.0498C19.6482 21.6111 19.0038 21.9806 18.2949 22.2051C17.9837 22.3036 17.6649 22.3706 17.333 22.417V25.333H15.333V22.4814C14.7523 22.4488 14.2188 22.3677 13.7051 22.2051C12.9962 21.9806 12.3518 21.6111 11.6797 21.0498C11.3807 20.8001 11.1332 20.4402 10.9277 20.0596C10.7189 19.6725 10.5345 19.229 10.375 18.7803C10.0558 17.8824 9.82039 16.9224 9.67676 16.2646C9.62061 16.009 9.39875 15.833 9.15723 15.833H8C7.72386 15.833 7.5 15.6091 7.5 15.333C7.50018 15.057 7.72397 14.833 8 14.833H9.15723ZM16 6.66699C18.2091 6.66699 20 8.83389 20 13.334L19.9951 13.749C19.8878 17.9669 18.14 20 16 20C13.86 20 12.1122 17.9669 12.0049 13.749L12 13.334C12 8.83389 13.7909 6.66699 16 6.66699ZM16 7.66699C15.2679 7.66699 14.5671 8.0082 14.0078 8.86133C13.4275 9.74684 13 11.1995 13 13.334C13.0001 15.4685 13.4274 16.9213 14.0078 17.8066C14.5671 18.6594 15.268 19 16 19C16.732 19 17.4329 18.6594 17.9922 17.8066C18.5726 16.9213 18.9999 15.4685 19 13.334C19 11.1995 18.5725 9.74684 17.9922 8.86133C17.4329 8.0082 16.7321 7.66699 16 7.66699Z" fill="#283740"/>
</svg>
