<svg width="32" height="32" viewBox="0 0 32 32" fill="none" xmlns="http://www.w3.org/2000/svg">
<path d="M16 0C24.8366 0 32 7.16344 32 16C32 24.8366 24.8366 32 16 32C7.16344 32 0 24.8366 0 16C0 7.16344 7.16344 0 16 0ZM16 2C8.26801 2 2 8.26801 2 16C2 23.732 8.26801 30 16 30C23.732 30 30 23.732 30 16C30 8.26801 23.732 2 16 2ZM9.15723 14.583C10.0115 14.583 10.7214 15.1933 10.8975 15.998C11.0361 16.633 11.2589 17.5349 11.5527 18.3613C11.6996 18.7744 11.8592 19.1542 12.0273 19.4658C12.2007 19.787 12.358 19.9884 12.4805 20.0908C13.0518 20.5679 13.5562 20.8469 14.083 21.0137C14.6171 21.1827 15.216 21.25 16 21.25C16.784 21.25 17.3829 21.1827 17.917 21.0137C18.4438 20.8469 18.9482 20.5679 19.5195 20.0908C19.642 19.9884 19.7993 19.787 19.9727 19.4658C20.1408 19.1542 20.3004 18.7744 20.4473 18.3613C20.7411 17.5349 20.9639 16.633 21.1025 15.998C21.2786 15.1933 21.9885 14.583 22.8428 14.583H24C24.4141 14.583 24.7498 14.9189 24.75 15.333C24.75 15.7472 24.4142 16.083 24 16.083H22.8428C22.7237 16.083 22.5994 16.1724 22.5674 16.3184C22.4228 16.9807 22.1846 17.9521 21.8604 18.8643C21.6983 19.3201 21.509 19.7766 21.292 20.1787C21.0801 20.5712 20.8147 20.963 20.4805 21.2422C19.7882 21.8203 19.1154 22.2074 18.3701 22.4434C17.929 22.583 17.4766 22.6644 17 22.708V25.167H17.916C18.3302 25.167 18.666 25.5028 18.666 25.917C18.6658 26.3311 18.3301 26.667 17.916 26.667H14.083C13.6691 26.6668 13.3332 26.3309 13.333 25.917C13.333 25.5029 13.669 25.1672 14.083 25.167H15V22.708C14.5234 22.6644 14.071 22.583 13.6299 22.4434C12.8846 22.2074 12.2118 21.8203 11.5195 21.2422C11.1853 20.963 10.9199 20.5712 10.708 20.1787C10.491 19.7766 10.3017 19.3201 10.1396 18.8643C9.81537 17.9521 9.57724 16.9807 9.43262 16.3184C9.40059 16.1724 9.27633 16.083 9.15723 16.083H8C7.58579 16.083 7.25 15.7472 7.25 15.333C7.25018 14.9189 7.58589 14.583 8 14.583H9.15723ZM16 6.66699C18.2091 6.66699 20 8.83389 20 13.334L19.9951 13.749C19.8878 17.9669 18.14 20 16 20C13.86 20 12.1122 17.9669 12.0049 13.749L12 13.334C12 8.83389 13.7909 6.66699 16 6.66699ZM16 8.16699C15.4541 8.16699 14.9028 8.40729 14.4258 9.13477C13.917 9.91093 13.5 11.257 13.5 13.334C13.5001 15.4108 13.917 16.7562 14.4258 17.5322C14.9028 18.2597 15.4541 18.5 16 18.5C16.5459 18.5 17.0972 18.2597 17.5742 17.5322C18.083 16.7562 18.4999 15.4108 18.5 13.334C18.5 11.257 18.083 9.91093 17.5742 9.13477C17.0972 8.40729 16.5459 8.16699 16 8.16699Z" fill="#283740"/>
</svg>
