<svg width="32" height="32" viewBox="0 0 32 32" fill="none" xmlns="http://www.w3.org/2000/svg">
<path d="M11 0C11.5523 0 12 0.447715 12 1V31C12 31.5523 11.5523 32 11 32C10.4477 32 10 31.5523 10 31V1C10 0.447715 10.4477 0 11 0ZM16 6C16.5523 6 17 6.44772 17 7V25C17 25.5523 16.5523 26 16 26C15.4477 26 15 25.5523 15 25V7C15 6.44772 15.4477 6 16 6ZM26 6C26.5523 6 27 6.44772 27 7V25C27 25.5523 26.5523 26 26 26C25.4477 26 25 25.5523 25 25V7C25 6.44772 25.4477 6 26 6ZM7 8C7.55228 8 8 8.44772 8 9V23C8 23.5523 7.55228 24 7 24C6.44772 24 6 23.5523 6 23V9C6 8.44772 6.44772 8 7 8ZM21 11C21.5523 11 22 11.4477 22 12V20C22 20.5523 21.5523 21 21 21C20.4477 21 20 20.5523 20 20V12C20 11.4477 20.4477 11 21 11ZM2 13C2.55228 13 3 13.4477 3 14V18C3 18.5523 2.55228 19 2 19C1.44772 19 1 18.5523 1 18V14C1 13.4477 1.44772 13 2 13ZM30 13C30.5523 13 31 13.4477 31 14V18C31 18.5523 30.5523 19 30 19C29.4477 19 29 18.5523 29 18V14C29 13.4477 29.4477 13 30 13Z" fill="#283740"/>
</svg>
